<?xml version="1.0" encoding="UTF-8"?>
<!DOCTYPE svg PUBLIC "-//W3C//DTD SVG 1.0//EN" "http://www.w3.org/TR/2001/REC-SVG-20010904/DTD/svg10.dtd">
<!-- Creator: CorelDRAW 2021 (64-Bit) -->
<svg xmlns="http://www.w3.org/2000/svg" xml:space="preserve" width="53px" height="101px" version="1.0" style="shape-rendering:geometricPrecision; text-rendering:geometricPrecision; image-rendering:optimizeQuality; fill-rule:evenodd; clip-rule:evenodd"
viewBox="0 0 1.82 3.45"
 xmlns:xlink="http://www.w3.org/1999/xlink"
 xmlns:xodm="http://www.corel.com/coreldraw/odm/2003">
 <defs>
  <style type="text/css">
   <![CDATA[
    .fil0 {fill:#C8B6A5;fill-rule:nonzero}
   ]]>
  </style>
 </defs>
 <g id="Capa_x0020_1">
  <metadata id="CorelCorpID_0Corel-Layer"/>
  <path class="fil0" d="M1.36 0c0.1,0 0.19,0.01 0.28,0.01 0.06,0 0.12,0.01 0.18,0.02l-0.01 0.55c-0.01,0 -0.03,0 -0.04,0 -0.06,0 -0.12,0 -0.18,0 -0.05,0 -0.1,0 -0.14,0 -0.15,0.01 -0.26,0.06 -0.27,0.25 0,0.13 0,0.42 0,0.44 0,0 0.15,0 0.3,0 0.07,0 0.14,0 0.19,0 0.04,0 0.08,0 0.12,0 -0.03,0.21 -0.06,0.42 -0.09,0.62l-0.52 0 -0.02 1.56 -0.64 0 0.01 -1.56 -0.53 0 0 -0.62 0.54 0 0 -0.05c0,-0.12 0,-0.25 0,-0.37 0,-0.08 0.01,-0.16 0.02,-0.24 0.04,-0.19 0.13,-0.35 0.28,-0.46 0.14,-0.1 0.3,-0.15 0.47,-0.15 0.02,0 0.04,0 0.05,0z"/>
 </g>
</svg>
