<svg xmlns="http://www.w3.org/2000/svg" width="100" height="100" version="1.0" viewBox="0 0 33.34 33.34" xmlns:xlink="http://www.w3.org/1999/xlink" shape-rendering="geometricPrecision" text-rendering="geometricPrecision" image-rendering="optimizeQuality" fill-rule="evenodd" clip-rule="evenodd"><defs><clipPath id="a"><path d="M16.67.27c9.06 0 16.4 7.34 16.4 16.4 0 9.06-7.34 16.4-16.4 16.4-9.06 0-16.4-7.34-16.4-16.4C.27 7.61 7.61.27 16.67.27z"/></clipPath><clipPath id="b"><path d="M16.67.27c9.06 0 16.4 7.34 16.4 16.4 0 9.06-7.34 16.4-16.4 16.4-9.06 0-16.4-7.34-16.4-16.4C.27 7.61 7.61.27 16.67.27z"/></clipPath><clipPath id="c"><path d="M16.67.27c9.06 0 16.4 7.34 16.4 16.4 0 9.06-7.34 16.4-16.4 16.4-9.06 0-16.4-7.34-16.4-16.4C.27 7.61 7.61.27 16.67.27z"/></clipPath></defs><path d="M16.67.27c9.06 0 16.4 7.34 16.4 16.4 0 9.06-7.34 16.4-16.4 16.4-9.06 0-16.4-7.34-16.4-16.4C.27 7.61 7.61.27 16.67.27z" fill="#c8b6a5"/><g clip-path="url(#a)"><g clip-path="url(#b)"><image x="-.88" y="-11.62" width="67.89" height="56.57" xlink:href="fotopet_Images\fotopet_ImgID1.png"/></g></g><path d="M16.67.27c9.06 0 16.4 7.34 16.4 16.4 0 9.06-7.34 16.4-16.4 16.4-9.06 0-16.4-7.34-16.4-16.4C.27 7.61 7.61.27 16.67.27z" fill="none" stroke="#efeeea" stroke-width=".55" stroke-linecap="round" stroke-linejoin="round" stroke-miterlimit="22.926"/></svg>