<?xml version="1.0" encoding="UTF-8"?>
<!DOCTYPE svg PUBLIC "-//W3C//DTD SVG 1.0//EN" "http://www.w3.org/TR/2001/REC-SVG-20010904/DTD/svg10.dtd">
<!-- Creator: CorelDRAW 2021 (64-Bit) -->
<svg xmlns="http://www.w3.org/2000/svg" xml:space="preserve" width="947px" height="328px" version="1.0" style="shape-rendering:geometricPrecision; text-rendering:geometricPrecision; image-rendering:optimizeQuality; fill-rule:evenodd; clip-rule:evenodd"
viewBox="0 0 352.97 122.12"
 xmlns:xlink="http://www.w3.org/1999/xlink"
 xmlns:xodm="http://www.corel.com/coreldraw/odm/2003">
 <defs>
  <style type="text/css">
   <![CDATA[
    .fil0 {fill:#C8B6A5;fill-rule:nonzero}
   ]]>
  </style>
 </defs>
 <g id="Capa_x0020_1">
  <metadata id="CorelCorpID_0Corel-Layer"/>
  <g id="_2723497582480">
   <path class="fil0" d="M71.06 43.59l0 77.21 -17.87 0 0 -31.66 -35.08 0 0 31.66 -17.87 0 0 -77.21 17.87 0 0 30.44 35.08 0 0 -30.44 17.87 0zm87.36 0l0 77.21 -17.32 0 0 -9.38c-5.29,7.14 -13.09,10.7 -23.39,10.7 -9.11,0 -16.23,-2.88 -21.34,-8.65 -5.11,-5.78 -7.67,-14 -7.67,-24.66l0 -45.22 17.87 0 0 44.67c0,6.18 1.46,10.83 4.36,13.95 2.91,3.13 6.86,4.69 11.86,4.69 5.37,0 9.67,-1.67 12.9,-5.02 3.24,-3.34 4.86,-8.29 4.86,-14.83l0 -43.46 17.87 0zm53.06 -1.33c7.13,0 13.34,1.4 18.64,4.19 5.29,2.8 9.41,6.92 12.35,12.36 2.94,5.44 4.41,12.02 4.41,19.74l0 42.25 -17.87 0 0 -18.53 -35.29 0 0 18.53 -17.65 0 0 -42.25c0,-7.72 1.47,-14.3 4.41,-19.74 2.94,-5.44 7.06,-9.56 12.35,-12.36 5.3,-2.79 11.51,-4.19 18.65,-4.19zm17.53 45.67l0 -11.03c0,-6.4 -1.58,-11.23 -4.74,-14.51 -3.16,-3.27 -7.46,-4.91 -12.91,-4.91 -5.51,0 -9.83,1.64 -12.96,4.91 -3.12,3.28 -4.68,8.11 -4.68,14.51l0 11.03 35.29 0zm60.89 34.19c-6.1,0 -12,-0.82 -17.7,-2.48 -5.7,-1.65 -10.28,-3.8 -13.73,-6.45l6.06 -13.46c3.31,2.43 7.25,4.38 11.81,5.85 4.55,1.47 9.11,2.2 13.67,2.2 5.08,0 8.83,-0.75 11.25,-2.26 2.43,-1.5 3.64,-3.51 3.64,-6.01 0,-1.84 -0.71,-3.36 -2.15,-4.58 -1.43,-1.21 -3.27,-2.18 -5.51,-2.92 -2.24,-0.73 -5.28,-1.54 -9.1,-2.43 -5.88,-1.39 -10.7,-2.79 -14.45,-4.19 -3.75,-1.39 -6.97,-3.64 -9.65,-6.73 -2.69,-3.08 -4.03,-7.2 -4.03,-12.35 0,-4.49 1.21,-8.55 3.64,-12.19 2.43,-3.64 6.09,-6.53 10.98,-8.66 4.89,-2.13 10.86,-3.2 17.92,-3.2 4.93,0 9.74,0.59 14.45,1.77 4.71,1.17 8.83,2.87 12.35,5.07l-5.51 13.57c-7.13,-4.05 -14.27,-6.07 -21.4,-6.07 -5,0 -8.7,0.81 -11.09,2.43 -2.39,1.62 -3.58,3.75 -3.58,6.4 0,2.64 1.38,4.61 4.14,5.9 2.75,1.29 6.96,2.55 12.63,3.8 5.88,1.4 10.7,2.8 14.45,4.2 3.75,1.39 6.96,3.6 9.65,6.61 2.68,3.02 4.02,7.1 4.02,12.25 0,4.41 -1.23,8.44 -3.69,12.08 -2.46,3.64 -6.16,6.52 -11.09,8.66 -4.92,2.13 -10.92,3.19 -17.98,3.19z"/>
   <path class="fil0" d="M18.55 0.31l0 24.07 -3.15 0 0 -10.91 -12.26 0 0 10.91 -3.14 0 0 -24.07 3.14 0 0 10.57 12.26 0 0 -10.57 3.15 0zm43.93 24.31c-2.24,0 -4.27,-0.52 -6.12,-1.57 -1.84,-1.04 -3.29,-2.51 -4.36,-4.38 -1.08,-1.88 -1.61,-3.99 -1.61,-6.34 0,-2.35 0.53,-4.46 1.61,-6.34 1.07,-1.87 2.52,-3.34 4.36,-4.38 1.85,-1.05 3.88,-1.58 6.12,-1.58 2.25,0 4.3,0.53 6.14,1.58 1.85,1.04 3.3,2.5 4.36,4.36 1.06,1.87 1.59,3.99 1.59,6.36 0,2.37 -0.53,4.49 -1.59,6.35 -1.06,1.87 -2.51,3.33 -4.36,4.37 -1.84,1.05 -3.89,1.57 -6.14,1.57zm0 -2.72c1.68,0 3.19,-0.4 4.54,-1.18 1.35,-0.78 2.41,-1.9 3.18,-3.35 0.77,-1.45 1.15,-3.13 1.15,-5.04 0,-1.93 -0.38,-3.62 -1.15,-5.06 -0.77,-1.44 -1.83,-2.55 -3.16,-3.33 -1.34,-0.79 -2.86,-1.18 -4.56,-1.18 -1.71,0 -3.23,0.39 -4.56,1.18 -1.34,0.78 -2.39,1.89 -3.16,3.33 -0.77,1.44 -1.16,3.13 -1.16,5.06 0,1.91 0.39,3.59 1.16,5.04 0.77,1.45 1.83,2.57 3.18,3.35 1.34,0.78 2.86,1.18 4.54,1.18zm51.53 2.72c-1.59,0 -3.01,-0.28 -4.27,-0.84 -1.25,-0.57 -2.24,-1.35 -2.95,-2.35 -0.72,-1 -1.08,-2.16 -1.11,-3.47l3.35 0c0.12,1.13 0.58,2.08 1.4,2.85 0.82,0.77 2.01,1.16 3.58,1.16 1.49,0 2.67,-0.38 3.54,-1.13 0.86,-0.75 1.29,-1.71 1.29,-2.88 0,-0.92 -0.25,-1.67 -0.76,-2.25 -0.51,-0.57 -1.14,-1.01 -1.9,-1.31 -0.76,-0.3 -1.78,-0.62 -3.07,-0.97 -1.59,-0.41 -2.86,-0.82 -3.82,-1.24 -0.95,-0.41 -1.77,-1.06 -2.45,-1.95 -0.68,-0.89 -1.02,-2.08 -1.02,-3.57 0,-1.32 0.33,-2.48 1,-3.49 0.67,-1.02 1.61,-1.8 2.82,-2.35 1.21,-0.55 2.59,-0.83 4.16,-0.83 2.26,0 4.1,0.56 5.54,1.69 1.44,1.13 2.25,2.63 2.44,4.49l-3.46 0c-0.11,-0.92 -0.6,-1.73 -1.45,-2.43 -0.85,-0.71 -1.98,-1.06 -3.38,-1.06 -1.31,0 -2.38,0.34 -3.21,1.02 -0.83,0.68 -1.25,1.63 -1.25,2.85 0,0.88 0.25,1.59 0.75,2.14 0.49,0.56 1.1,0.98 1.83,1.26 0.72,0.29 1.74,0.62 3.05,0.99 1.59,0.44 2.87,0.87 3.84,1.29 0.96,0.43 1.79,1.09 2.48,1.97 0.69,0.89 1.04,2.09 1.04,3.61 0,1.18 -0.31,2.28 -0.93,3.32 -0.63,1.03 -1.55,1.87 -2.77,2.52 -1.22,0.64 -2.66,0.96 -4.31,0.96zm55.12 -24.31l0 2.56 -6.56 0 0 21.51 -3.15 0 0 -21.51 -6.59 0 0 -2.56 16.3 0zm34.67 2.56l0 8.04 8.77 0 0 2.59 -8.77 0 0 8.29 9.81 0 0 2.59 -12.95 0 0 -24.1 12.95 0 0 2.59 -9.81 0zm54.92 21.51l-5.74 -9.84 -3.8 0 0 9.84 -3.14 0 0 -24.07 7.77 0c1.82,0 3.36,0.31 4.61,0.93 1.26,0.63 2.2,1.47 2.82,2.52 0.62,1.06 0.93,2.27 0.93,3.63 0,1.66 -0.48,3.12 -1.43,4.39 -0.96,1.26 -2.39,2.1 -4.3,2.52l6.04 10.08 -3.76 0zm-9.54 -12.36l4.63 0c1.71,0 2.98,-0.42 3.84,-1.26 0.85,-0.84 1.27,-1.96 1.27,-3.37 0,-1.43 -0.42,-2.53 -1.26,-3.31 -0.84,-0.79 -2.12,-1.18 -3.85,-1.18l-4.63 0 0 9.12zm48.67 -11.71l0 24.07 -3.15 0 0 -24.07 3.15 0zm47.24 18.72l-10.5 0 -1.93 5.35 -3.32 0 8.71 -23.93 3.62 0 8.67 23.93 -3.31 0 -1.94 -5.35zm-0.89 -2.56l-4.36 -12.15 -4.35 12.15 8.71 0z"/>
   <path class="fil0" d="M342.27 61.36c-3.16,0 -5.74,-0.91 -7.72,-2.75 -1.99,-1.84 -2.98,-4.12 -2.98,-6.84 0,-2.72 0.99,-5 2.98,-6.84 1.98,-1.84 4.56,-2.76 7.72,-2.76 3.16,0 5.73,0.88 7.72,2.65 1.98,1.76 2.98,3.97 2.98,6.62 0,2.86 -1,5.24 -2.98,7.11 -1.99,1.88 -4.56,2.81 -7.72,2.81z"/>
   <polygon class="fil0" points="333.66,74.22 350.87,74.22 350.87,120.79 333.66,120.79 "/>
  </g>
 </g>
</svg>
