<svg xmlns="http://www.w3.org/2000/svg" width="947" height="328" version="1.0" viewBox="0 0 1464.28 506.63" shape-rendering="geometricPrecision" text-rendering="geometricPrecision" image-rendering="optimizeQuality" fill-rule="evenodd" clip-rule="evenodd"><defs><style>.fil0{fill:#c85223;fill-rule:nonzero}</style></defs><g id="Capa_x0020_1"><g id="_2723427388432"><path class="fil0" d="M294.77 180.82v320.32h-74.13V369.81H75.12v131.33H.99V180.82h74.13v126.3h145.52v-126.3h74.13zm362.43 0v320.32h-71.85v-38.9c-21.96 29.6-54.3 44.39-97.01 44.39-37.83 0-67.34-11.97-88.55-35.92-21.2-23.95-31.8-58.04-31.8-102.28V180.82h74.13v185.33c0 25.62 6.03 44.92 18.08 57.88 12.05 12.97 28.44 19.45 49.19 19.45 22.27 0 40.12-6.94 53.54-20.82 13.42-13.88 20.13-34.39 20.13-61.55V180.82h74.14zm220.1-5.49c29.6 0 55.37 5.79 77.34 17.39 21.96 11.59 39.05 28.67 51.25 51.25 12.2 22.57 18.3 49.88 18.3 81.91v175.26h-74.13v-76.88H803.63v76.88h-73.22V325.88c0-32.03 6.1-59.34 18.31-81.91 12.2-22.58 29.28-39.66 51.25-51.25 21.96-11.6 47.74-17.39 77.33-17.39zm72.76 189.44v-45.76c0-26.54-6.56-46.6-19.67-60.17-13.12-13.58-30.97-20.36-53.54-20.36-22.88 0-40.81 6.78-53.77 20.36-12.97 13.57-19.45 33.63-19.45 60.17v45.76h146.43zm252.6 141.86c-25.32 0-49.8-3.43-73.45-10.29-23.64-6.87-42.63-15.79-56.97-26.77l25.17-55.83c13.73 10.07 30.05 18.15 48.97 24.25 18.91 6.1 37.82 9.15 56.74 9.15 21.05 0 36.6-3.12 46.67-9.38 10.07-6.25 15.1-14.56 15.1-24.94 0-7.62-2.97-13.95-8.92-18.99-5.95-5.03-13.57-9.07-22.88-12.12-9.31-3.05-21.89-6.41-37.75-10.07-24.41-5.8-44.39-11.59-59.95-17.39-15.56-5.8-28.9-15.1-40.04-27.91-11.13-12.82-16.7-29.9-16.7-51.26 0-18.61 5.03-35.46 15.1-50.56 10.07-15.1 25.24-27.08 45.53-35.92 20.29-8.85 45.08-13.27 74.36-13.27 20.44 0 40.42 2.44 59.95 7.32 19.52 4.88 36.61 11.9 51.25 21.05l-22.88 56.28c-29.59-16.78-59.18-25.17-88.77-25.17-20.75 0-36.08 3.36-46 10.07-9.91 6.71-14.87 15.56-14.87 26.54 0 10.99 5.72 19.15 17.16 24.49 11.44 5.33 28.91 10.6 52.4 15.78 24.4 5.8 44.39 11.59 59.94 17.39 15.56 5.8 28.91 14.95 40.04 27.46 11.14 12.5 16.71 29.44 16.71 50.79 0 18.31-5.11 35.01-15.33 50.11-10.22 15.1-25.55 27.07-45.99 35.92-20.44 8.85-45.3 13.27-74.59 13.27zM76.94 1.29v99.86H63.9V55.88H13.04v45.27H0V1.29h13.04v43.84H63.9V1.29h13.04zm182.25 100.86c-9.27 0-17.72-2.17-25.36-6.51-7.65-4.35-13.69-10.41-18.13-18.2-4.44-7.78-6.66-16.55-6.66-26.29 0-9.74 2.22-18.51 6.66-26.29 4.44-7.79 10.48-13.85 18.13-18.2 7.64-4.34 16.09-6.52 25.36-6.52 9.36 0 17.86 2.18 25.5 6.52 7.64 4.35 13.66 10.39 18.05 18.13 4.4 7.73 6.59 16.52 6.59 26.36s-2.19 18.62-6.59 26.36c-4.39 7.74-10.41 13.78-18.05 18.13-7.64 4.34-16.14 6.51-25.5 6.51zm0-11.31c6.97 0 13.25-1.63 18.84-4.88 5.58-3.24 9.98-7.87 13.18-13.89 3.2-6.02 4.8-12.99 4.8-20.92 0-8.02-1.6-15.02-4.8-20.99-3.2-5.97-7.57-10.58-13.11-13.83-5.54-3.24-11.85-4.87-18.91-4.87-7.07 0-13.38 1.63-18.92 4.87-5.54 3.25-9.91 7.86-13.11 13.83-3.2 5.97-4.8 12.97-4.8 20.99 0 7.93 1.6 14.9 4.8 20.92 3.2 6.02 7.6 10.65 13.18 13.89 5.59 3.25 11.87 4.88 18.85 4.88zm213.76 11.31c-6.59 0-12.49-1.17-17.69-3.5-5.21-2.34-9.29-5.59-12.25-9.75-2.96-4.15-4.49-8.95-4.59-14.4h13.9c.48 4.68 2.41 8.62 5.8 11.82 3.4 3.2 8.34 4.8 14.83 4.8 6.21 0 11.11-1.55 14.69-4.65 3.58-3.11 5.37-7.1 5.37-11.97 0-3.82-1.05-6.92-3.15-9.31-2.1-2.39-4.73-4.2-7.88-5.44-3.15-1.25-7.4-2.58-12.75-4.02-6.59-1.72-11.87-3.43-15.83-5.15-3.97-1.72-7.36-4.42-10.18-8.1-2.81-3.68-4.22-8.62-4.22-14.83 0-5.44 1.38-10.27 4.15-14.47 2.77-4.2 6.66-7.45 11.68-9.74C459.84 1.15 465.6 0 472.09 0c9.36 0 17.03 2.34 23 7.02 5.97 4.68 9.34 10.89 10.1 18.63h-14.33c-.47-3.82-2.48-7.19-6.02-10.1-3.53-2.92-8.21-4.38-14.03-4.38-5.45 0-9.89 1.41-13.33 4.23-3.44 2.82-5.16 6.76-5.16 11.82 0 3.63 1.03 6.59 3.08 8.89 2.06 2.29 4.59 4.03 7.6 5.22 3.01 1.2 7.23 2.56 12.68 4.09 6.59 1.81 11.89 3.6 15.9 5.37s7.45 4.49 10.31 8.17c2.87 3.67 4.3 8.67 4.3 14.97 0 4.87-1.28 9.46-3.86 13.75-2.58 4.3-6.4 7.79-11.47 10.46-5.06 2.68-11.03 4.01-17.91 4.01zM701.62 1.29v10.6H674.4v89.26h-13.04V11.89H634V1.29h67.62zm143.85 10.6v33.38h36.39v10.75h-36.39v34.39h40.69v10.74h-53.73v-100h53.73v10.74h-40.69zm227.81 89.26l-23.78-40.83h-15.76v40.83h-13.04V1.29h32.24c7.54 0 13.92 1.29 19.13 3.87 5.2 2.58 9.09 6.06 11.67 10.46 2.58 4.39 3.87 9.4 3.87 15.04 0 6.88-1.98 12.94-5.95 18.2-3.96 5.25-9.91 8.74-17.83 10.46l25.07 41.83h-15.62zm-39.54-51.29h19.2c7.06 0 12.37-1.74 15.9-5.23 3.54-3.49 5.3-8.14 5.3-13.97 0-5.92-1.74-10.51-5.23-13.75-3.48-3.25-8.81-4.88-15.97-4.88h-19.2v37.83zm201.87-48.57v99.86h-13.03V1.29h13.03zm196.01 77.66h-43.56l-8.02 22.2h-13.76l36.11-99.29h15.04l35.96 99.29h-13.75l-8.02-22.2zm-3.73-10.61l-18.05-50.43-18.05 50.43h36.1zM1419.9 254.57c-13.12 0-23.8-3.81-32.04-11.44-8.23-7.63-12.35-17.09-12.35-28.37 0-11.29 4.12-20.75 12.35-28.37 8.24-7.63 18.92-11.44 32.04-11.44 13.11 0 23.79 3.66 32.03 10.98 8.23 7.32 12.35 16.47 12.35 27.46 0 11.89-4.12 21.73-12.35 29.51-8.24 7.78-18.92 11.67-32.03 11.67zM1384.2 307.9h71.39v193.21h-71.39z"/></g></g></svg>