<svg xmlns="http://www.w3.org/2000/svg" width="947" height="328" version="1.0" viewBox="0 0 352.97 122.12" shape-rendering="geometricPrecision" text-rendering="geometricPrecision" image-rendering="optimizeQuality" fill-rule="evenodd" clip-rule="evenodd"><defs><style>.fil0{fill:#c8b6a5;fill-rule:nonzero}</style></defs><g id="Capa_x0020_1"><g id="_2723497582480"><path class="fil0" d="M71.06 43.59v77.21H53.19V89.14H18.11v31.66H.24V43.59h17.87v30.44h35.08V43.59h17.87zm87.36 0v77.21H141.1v-9.38c-5.29 7.14-13.09 10.7-23.39 10.7-9.11 0-16.23-2.88-21.34-8.65-5.11-5.78-7.67-14-7.67-24.66V43.59h17.87v44.67c0 6.18 1.46 10.83 4.36 13.95 2.91 3.13 6.86 4.69 11.86 4.69 5.37 0 9.67-1.67 12.9-5.02 3.24-3.34 4.86-8.29 4.86-14.83V43.59h17.87zm53.06-1.33c7.13 0 13.34 1.4 18.64 4.19 5.29 2.8 9.41 6.92 12.35 12.36 2.94 5.44 4.41 12.02 4.41 19.74v42.25h-17.87v-18.53h-35.29v18.53h-17.65V78.55c0-7.72 1.47-14.3 4.41-19.74 2.94-5.44 7.06-9.56 12.35-12.36 5.3-2.79 11.51-4.19 18.65-4.19zm17.53 45.67V76.9c0-6.4-1.58-11.23-4.74-14.51-3.16-3.27-7.46-4.91-12.91-4.91-5.51 0-9.83 1.64-12.96 4.91-3.12 3.28-4.68 8.11-4.68 14.51v11.03h35.29zm60.89 34.19c-6.1 0-12-.82-17.7-2.48-5.7-1.65-10.28-3.8-13.73-6.45l6.06-13.46c3.31 2.43 7.25 4.38 11.81 5.85 4.55 1.47 9.11 2.2 13.67 2.2 5.08 0 8.83-.75 11.25-2.26 2.43-1.5 3.64-3.51 3.64-6.01 0-1.84-.71-3.36-2.15-4.58-1.43-1.21-3.27-2.18-5.51-2.92-2.24-.73-5.28-1.54-9.1-2.43-5.88-1.39-10.7-2.79-14.45-4.19-3.75-1.39-6.97-3.64-9.65-6.73-2.69-3.08-4.03-7.2-4.03-12.35 0-4.49 1.21-8.55 3.64-12.19 2.43-3.64 6.09-6.53 10.98-8.66 4.89-2.13 10.86-3.2 17.92-3.2 4.93 0 9.74.59 14.45 1.77 4.71 1.17 8.83 2.87 12.35 5.07l-5.51 13.57c-7.13-4.05-14.27-6.07-21.4-6.07-5 0-8.7.81-11.09 2.43-2.39 1.62-3.58 3.75-3.58 6.4 0 2.64 1.38 4.61 4.14 5.9 2.75 1.29 6.96 2.55 12.63 3.8 5.88 1.4 10.7 2.8 14.45 4.2 3.75 1.39 6.96 3.6 9.65 6.61 2.68 3.02 4.02 7.1 4.02 12.25 0 4.41-1.23 8.44-3.69 12.08-2.46 3.64-6.16 6.52-11.09 8.66-4.92 2.13-10.92 3.19-17.98 3.19zM18.55.31v24.07H15.4V13.47H3.14v10.91H0V.31h3.14v10.57H15.4V.31h3.15zm43.93 24.31c-2.24 0-4.27-.52-6.12-1.57-1.84-1.04-3.29-2.51-4.36-4.38-1.08-1.88-1.61-3.99-1.61-6.34 0-2.35.53-4.46 1.61-6.34 1.07-1.87 2.52-3.34 4.36-4.38C58.21.56 60.24.03 62.48.03c2.25 0 4.3.53 6.14 1.58 1.85 1.04 3.3 2.5 4.36 4.36 1.06 1.87 1.59 3.99 1.59 6.36s-.53 4.49-1.59 6.35c-1.06 1.87-2.51 3.33-4.36 4.37-1.84 1.05-3.89 1.57-6.14 1.57zm0-2.72c1.68 0 3.19-.4 4.54-1.18 1.35-.78 2.41-1.9 3.18-3.35.77-1.45 1.15-3.13 1.15-5.04 0-1.93-.38-3.62-1.15-5.06-.77-1.44-1.83-2.55-3.16-3.33-1.34-.79-2.86-1.18-4.56-1.18-1.71 0-3.23.39-4.56 1.18-1.34.78-2.39 1.89-3.16 3.33-.77 1.44-1.16 3.13-1.16 5.06 0 1.91.39 3.59 1.16 5.04.77 1.45 1.83 2.57 3.18 3.35 1.34.78 2.86 1.18 4.54 1.18zm51.53 2.72c-1.59 0-3.01-.28-4.27-.84-1.25-.57-2.24-1.35-2.95-2.35-.72-1-1.08-2.16-1.11-3.47h3.35c.12 1.13.58 2.08 1.4 2.85s2.01 1.16 3.58 1.16c1.49 0 2.67-.38 3.54-1.13.86-.75 1.29-1.71 1.29-2.88 0-.92-.25-1.67-.76-2.25a4.942 4.942 0 00-1.9-1.31c-.76-.3-1.78-.62-3.07-.97-1.59-.41-2.86-.82-3.82-1.24-.95-.41-1.77-1.06-2.45-1.95-.68-.89-1.02-2.08-1.02-3.57 0-1.32.33-2.48 1-3.49.67-1.02 1.61-1.8 2.82-2.35 1.21-.55 2.59-.83 4.16-.83 2.26 0 4.1.56 5.54 1.69 1.44 1.13 2.25 2.63 2.44 4.49h-3.46c-.11-.92-.6-1.73-1.45-2.43-.85-.71-1.98-1.06-3.38-1.06-1.31 0-2.38.34-3.21 1.02-.83.68-1.25 1.63-1.25 2.85 0 .88.25 1.59.75 2.14.49.56 1.1.98 1.83 1.26.72.29 1.74.62 3.05.99 1.59.44 2.87.87 3.84 1.29.96.43 1.79 1.09 2.48 1.97.69.89 1.04 2.09 1.04 3.61 0 1.18-.31 2.28-.93 3.32-.63 1.03-1.55 1.87-2.77 2.52-1.22.64-2.66.96-4.31.96zM169.13.31v2.56h-6.56v21.51h-3.15V2.87h-6.59V.31h16.3zm34.67 2.56v8.04h8.77v2.59h-8.77v8.29h9.81v2.59h-12.95V.28h12.95v2.59h-9.81zm54.92 21.51l-5.74-9.84h-3.8v9.84h-3.14V.31h7.77c1.82 0 3.36.31 4.61.93 1.26.63 2.2 1.47 2.82 2.52.62 1.06.93 2.27.93 3.63 0 1.66-.48 3.12-1.43 4.39-.96 1.26-2.39 2.1-4.3 2.52l6.04 10.08h-3.76zm-9.54-12.36h4.63c1.71 0 2.98-.42 3.84-1.26.85-.84 1.27-1.96 1.27-3.37 0-1.43-.42-2.53-1.26-3.31-.84-.79-2.12-1.18-3.85-1.18h-4.63v9.12zM297.85.31v24.07h-3.15V.31h3.15zm47.24 18.72h-10.5l-1.93 5.35h-3.32L338.05.45h3.62l8.67 23.93h-3.31l-1.94-5.35zm-.89-2.56l-4.36-12.15-4.35 12.15h8.71zM342.27 61.36c-3.16 0-5.74-.91-7.72-2.75-1.99-1.84-2.98-4.12-2.98-6.84 0-2.72.99-5 2.98-6.84 1.98-1.84 4.56-2.76 7.72-2.76s5.73.88 7.72 2.65c1.98 1.76 2.98 3.97 2.98 6.62 0 2.86-1 5.24-2.98 7.11-1.99 1.88-4.56 2.81-7.72 2.81zM333.66 74.22h17.21v46.57h-17.21z"/></g></g></svg>