<svg xmlns="http://www.w3.org/2000/svg" width="134" height="181" version="1.0" viewBox="0 0 5.64 7.65" shape-rendering="geometricPrecision" text-rendering="geometricPrecision" image-rendering="optimizeQuality" fill-rule="evenodd" clip-rule="evenodd"><path d="M1.3 2.86a1.52 1.52 0 113.039-.001A1.52 1.52 0 011.3 2.86zm1.01 4.36l.06.06.01.01c.01.01.02.03.04.04l.01.01c.01.01.02.03.04.04 0 0 0 .01.01.01l.08.08.01.01.03.03.01.01.03.03s.01 0 .01.01l.03.03c.01.01.02.02.04.03h.01l.02.02h.01c.01 0 .02.01.03.01H2.85c.01 0 .02 0 .02-.01h.02s.01-.01.02-.01c0 0 0-.01.01-.01s.02-.01.03-.02l.03-.03s0-.01.01-.01l.03-.03.14-.14.16-.16.01-.01c.81-.83 2.31-2.61 2.31-4.3C5.64 1.31 4.32 0 2.82 0 1.33 0 0 1.31 0 2.92c0 1.69 1.5 3.47 2.31 4.3z" fill="#c65425" fill-rule="nonzero"/></svg>