<?xml version="1.0" encoding="UTF-8"?>
<!DOCTYPE svg PUBLIC "-//W3C//DTD SVG 1.0//EN" "http://www.w3.org/TR/2001/REC-SVG-20010904/DTD/svg10.dtd">
<!-- Creator: CorelDRAW 2021 (64-Bit) -->
<svg xmlns="http://www.w3.org/2000/svg" xml:space="preserve" width="192px" height="179px" version="1.0" style="shape-rendering:geometricPrecision; text-rendering:geometricPrecision; image-rendering:optimizeQuality; fill-rule:evenodd; clip-rule:evenodd"
viewBox="0 0 18.49 17.27"
 xmlns:xlink="http://www.w3.org/1999/xlink"
 xmlns:xodm="http://www.corel.com/coreldraw/odm/2003">
 <defs>
  <style type="text/css">
   <![CDATA[
    .fil0 {fill:#C65425;fill-rule:nonzero}
   ]]>
  </style>
 </defs>
 <g id="Capa_x0020_1">
  <metadata id="CorelCorpID_0Corel-Layer"/>
  <path class="fil0" d="M3.06 0c0.35,0 0.71,0.06 1.06,0.12 0.21,0.03 0.4,0.34 0.51,0.56 0.51,1.18 1.01,2.37 1.45,3.58 0.24,0.64 -0.21,1.25 -1.15,2.31 -0.29,0.33 -0.35,0.65 -0.13,1.04 1.48,2.55 3.57,4.39 6.33,5.47 0.13,0.05 0.24,0.07 0.35,0.07 0.24,0 0.43,-0.11 0.62,-0.33 1.18,-1.43 1.51,-2.05 1.99,-2.05 0.12,0 0.25,0.04 0.4,0.11 3.69,1.77 3.98,1.84 3.99,2.26 0.1,2.96 -2.48,4.13 -4.23,4.13l-0.27 -0.01c-3.57,-0.13 -9.26,-2.95 -13.12,-9.75 -1.36,-2.4 -1.14,-5.15 0.9,-7.04 0.39,-0.36 0.84,-0.47 1.3,-0.47z"/>
 </g>
</svg>
