<svg xmlns="http://www.w3.org/2000/svg" width="192" height="179" version="1.0" viewBox="0 0 18.49 17.27" shape-rendering="geometricPrecision" text-rendering="geometricPrecision" image-rendering="optimizeQuality" fill-rule="evenodd" clip-rule="evenodd"><path d="M3.06 0c.35 0 .71.06 1.06.12.21.03.4.34.51.56.51 1.18 1.01 2.37 1.45 3.58.24.64-.21 1.25-1.15 2.31-.29.33-.35.65-.13 1.04 1.48 2.55 3.57 4.39 6.33 5.47.13.05.24.07.35.07.24 0 .43-.11.62-.33 1.18-1.43 1.51-2.05 1.99-2.05.12 0 .25.04.4.11 3.69 1.77 3.98 1.84 3.99 2.26.1 2.96-2.48 4.13-4.23 4.13l-.27-.01c-3.57-.13-9.26-2.95-13.12-9.75-1.36-2.4-1.14-5.15.9-7.04C2.15.11 2.6 0 3.06 0z" fill="#c65425" fill-rule="nonzero"/></svg>