<?xml version="1.0" encoding="UTF-8"?>
<!DOCTYPE svg PUBLIC "-//W3C//DTD SVG 1.0//EN" "http://www.w3.org/TR/2001/REC-SVG-20010904/DTD/svg10.dtd">
<!-- Creator: CorelDRAW 2021 (64-Bit) -->
<svg xmlns="http://www.w3.org/2000/svg" xml:space="preserve" width="134px" height="181px" version="1.0" style="shape-rendering:geometricPrecision; text-rendering:geometricPrecision; image-rendering:optimizeQuality; fill-rule:evenodd; clip-rule:evenodd"
viewBox="0 0 5.64 7.65"
 xmlns:xlink="http://www.w3.org/1999/xlink"
 xmlns:xodm="http://www.corel.com/coreldraw/odm/2003">
 <defs>
  <style type="text/css">
   <![CDATA[
    .fil0 {fill:#C65425;fill-rule:nonzero}
   ]]>
  </style>
 </defs>
 <g id="Capa_x0020_1">
  <metadata id="CorelCorpID_0Corel-Layer"/>
  <path class="fil0" d="M1.3 2.86c0,-0.84 0.68,-1.52 1.52,-1.52 0.84,0 1.52,0.68 1.52,1.52 0,0.84 -0.68,1.52 -1.52,1.52 -0.84,0 -1.52,-0.68 -1.52,-1.52zm1.01 4.36c0,0 0,0 0,0 0.02,0.02 0.04,0.04 0.06,0.06 0,0 0,0 0.01,0.01 0.01,0.01 0.02,0.03 0.04,0.04 0,0 0.01,0.01 0.01,0.01 0.01,0.01 0.02,0.03 0.04,0.04 0,0 0,0.01 0.01,0.01 0.03,0.03 0.06,0.06 0.08,0.08 0.01,0.01 0.01,0.01 0.01,0.01 0.01,0.01 0.02,0.02 0.03,0.03 0.01,0.01 0.01,0.01 0.01,0.01 0.01,0.01 0.02,0.02 0.03,0.03 0,0 0.01,0 0.01,0.01 0.01,0.01 0.02,0.02 0.03,0.03 0.01,0.01 0.02,0.02 0.04,0.03 0,0 0,0 0.01,0 0.01,0.01 0.01,0.01 0.02,0.02 0.01,0 0.01,0 0.01,0 0.01,0 0.02,0.01 0.03,0.01 0,0 0.01,0 0.01,0 0.01,0 0.01,0 0.02,0 0,0 0,0 0,0 0.01,0 0.01,0 0.02,0 0,0 0.01,0 0.01,0 0.01,0 0.02,0 0.02,-0.01 0.01,0 0.01,0 0.02,0 0,0 0.01,-0.01 0.02,-0.01 0,0 0,-0.01 0.01,-0.01 0.01,0 0.02,-0.01 0.03,-0.02 0.01,-0.01 0.02,-0.02 0.03,-0.03 0,0 0,-0.01 0.01,-0.01 0.01,-0.01 0.02,-0.02 0.03,-0.03 0,0 0,0 0,0 0.04,-0.04 0.09,-0.09 0.14,-0.14 0,0 0,0 0,0 0.05,-0.05 0.1,-0.1 0.16,-0.16 0,0 0,0 0.01,-0.01 0,0 0,0 0,0 0.81,-0.83 2.31,-2.61 2.31,-4.3 0,-1.61 -1.32,-2.92 -2.82,-2.92 -1.49,0 -2.82,1.31 -2.82,2.92 0,1.69 1.5,3.47 2.31,4.3l0 0z"/>
 </g>
</svg>
