<svg xmlns="http://www.w3.org/2000/svg" width="246" height="180" version="1.0" viewBox="0 0 22.46 16.4" shape-rendering="geometricPrecision" text-rendering="geometricPrecision" image-rendering="optimizeQuality" fill-rule="evenodd" clip-rule="evenodd"><defs><style>.fil0{fill:#c65425;fill-rule:nonzero}</style></defs><g id="Capa_x0020_1"><path class="fil0" d="M0 3.45v11.11l6.67-5.55zM20.69 0H1.77C.9 0 .17.64.03 1.47l8.82 7.34 1.47 1.22c.5.42 1.32.42 1.82 0l1.54-1.28 8.75-7.28C22.29.64 21.56 0 20.69 0zM22.46 14.56V3.45l-6.68 5.56z"/><path class="fil0" d="M13.33 11.04l-1.19 1c-.5.41-1.32.41-1.82 0l-1.54-1.28-.9-.75L.67 16c.3.25.68.4 1.1.4h18.92c.41 0 .8-.15 1.1-.4l-7.21-5.99-1.25 1.03z"/></g></svg>