<?xml version="1.0" encoding="UTF-8"?>
<!DOCTYPE svg PUBLIC "-//W3C//DTD SVG 1.0//EN" "http://www.w3.org/TR/2001/REC-SVG-20010904/DTD/svg10.dtd">
<!-- Creator: CorelDRAW 2021 (64-Bit) -->
<svg xmlns="http://www.w3.org/2000/svg" xml:space="preserve" width="246px" height="180px" version="1.0" style="shape-rendering:geometricPrecision; text-rendering:geometricPrecision; image-rendering:optimizeQuality; fill-rule:evenodd; clip-rule:evenodd"
viewBox="0 0 22.46 16.4"
 xmlns:xlink="http://www.w3.org/1999/xlink"
 xmlns:xodm="http://www.corel.com/coreldraw/odm/2003">
 <defs>
  <style type="text/css">
   <![CDATA[
    .fil0 {fill:#C65425;fill-rule:nonzero}
   ]]>
  </style>
 </defs>
 <g id="Capa_x0020_1">
  <metadata id="CorelCorpID_0Corel-Layer"/>
  <polygon class="fil0" points="0,3.45 0,14.56 6.67,9.01 "/>
  <path class="fil0" d="M20.69 0l-18.92 0c-0.87,0 -1.6,0.64 -1.74,1.47l8.82 7.34 1.47 1.22c0.5,0.42 1.32,0.42 1.82,0l1.54 -1.28 8.75 -7.28c-0.14,-0.83 -0.87,-1.47 -1.74,-1.47z"/>
  <polygon class="fil0" points="22.46,14.56 22.46,3.45 15.78,9.01 "/>
  <path class="fil0" d="M13.33 11.04l-1.19 1c-0.5,0.41 -1.32,0.41 -1.82,0l-1.54 -1.28 -0.9 -0.75 -7.21 5.99c0.3,0.25 0.68,0.4 1.1,0.4l18.92 0c0.41,0 0.8,-0.15 1.1,-0.4l-7.21 -5.99 -1.25 1.03z"/>
 </g>
</svg>
