<svg xmlns="http://www.w3.org/2000/svg" width="100" height="100" version="1.0" viewBox="0 0 4.6 4.6" shape-rendering="geometricPrecision" text-rendering="geometricPrecision" image-rendering="optimizeQuality" fill-rule="evenodd" clip-rule="evenodd"><defs><style>.fil0{fill:#c8b6a5;fill-rule:nonzero}</style></defs><g id="Capa_x0020_1"><path class="fil0" d="M3.53.8h.01c.15 0 .27.12.27.28 0 .15-.12.27-.28.27-.15 0-.27-.12-.27-.28 0-.15.12-.27.27-.27z"/><path class="fil0" d="M4.13 3.45c.07-.4.07-1.88.03-2.26-.04-.4-.29-.67-.69-.73-.2-.03-.68-.04-1.15-.04-.46 0-.91.01-1.12.03C.8.5.53.74.47 1.14.4 1.57.41 3.15.45 3.46c.06.33.24.56.57.65.18.05.71.07 1.24.07.48 0 .95-.01 1.13-.03.41-.05.68-.3.74-.7zm.44-2.3c.04.37.06 2.08-.05 2.48-.14.52-.48.83-1.01.92-.2.03-.74.05-1.27.05-.55 0-1.1-.02-1.28-.07-.52-.14-.83-.47-.92-1-.06-.39-.06-2.19.05-2.58.14-.51.48-.81 1-.9C1.32.01 1.78 0 2.24 0c.43 0 .86.01 1.12.03.32.01.61.11.84.34.23.21.34.48.37.78z"/><path class="fil0" d="M2.29 3.06c.42 0 .76-.33.77-.75a.747.747 0 00-.75-.77.76.76 0 00-.77.75c-.01.42.32.77.75.77zm.02-1.94c.65 0 1.17.53 1.17 1.18-.01.65-.54 1.18-1.19 1.18-.65 0-1.17-.53-1.17-1.18.01-.65.54-1.18 1.19-1.18z"/></g></svg>