<?xml version="1.0" encoding="UTF-8"?>
<!DOCTYPE svg PUBLIC "-//W3C//DTD SVG 1.0//EN" "http://www.w3.org/TR/2001/REC-SVG-20010904/DTD/svg10.dtd">
<!-- Creator: CorelDRAW 2021 (64-Bit) -->
<svg xmlns="http://www.w3.org/2000/svg" xml:space="preserve" width="100px" height="100px" version="1.0" style="shape-rendering:geometricPrecision; text-rendering:geometricPrecision; image-rendering:optimizeQuality; fill-rule:evenodd; clip-rule:evenodd"
viewBox="0 0 4.6 4.6"
 xmlns:xlink="http://www.w3.org/1999/xlink"
 xmlns:xodm="http://www.corel.com/coreldraw/odm/2003">
 <defs>
  <style type="text/css">
   <![CDATA[
    .fil0 {fill:#C8B6A5;fill-rule:nonzero}
   ]]>
  </style>
 </defs>
 <g id="Capa_x0020_1">
  <metadata id="CorelCorpID_0Corel-Layer"/>
  <path class="fil0" d="M3.53 0.8l0.01 0c0.15,0 0.27,0.12 0.27,0.28 0,0.15 -0.12,0.27 -0.28,0.27 -0.15,0 -0.27,-0.12 -0.27,-0.28 0,-0.15 0.12,-0.27 0.27,-0.27z"/>
  <path class="fil0" d="M4.13 3.45c0.07,-0.4 0.07,-1.88 0.03,-2.26 -0.04,-0.4 -0.29,-0.67 -0.69,-0.73 -0.2,-0.03 -0.68,-0.04 -1.15,-0.04 -0.46,0 -0.91,0.01 -1.12,0.03 -0.4,0.05 -0.67,0.29 -0.73,0.69 -0.07,0.43 -0.06,2.01 -0.02,2.32 0.06,0.33 0.24,0.56 0.57,0.65 0.18,0.05 0.71,0.07 1.24,0.07 0.48,0 0.95,-0.01 1.13,-0.03 0.41,-0.05 0.68,-0.3 0.74,-0.7zm0.44 -2.3c0.04,0.37 0.06,2.08 -0.05,2.48 -0.14,0.52 -0.48,0.83 -1.01,0.92 -0.2,0.03 -0.74,0.05 -1.27,0.05 -0.55,0 -1.1,-0.02 -1.28,-0.07 -0.52,-0.14 -0.83,-0.47 -0.92,-1 -0.06,-0.39 -0.06,-2.19 0.05,-2.58 0.14,-0.51 0.48,-0.81 1,-0.9 0.23,-0.04 0.69,-0.05 1.15,-0.05 0.43,0 0.86,0.01 1.12,0.03 0.32,0.01 0.61,0.11 0.84,0.34 0.23,0.21 0.34,0.48 0.37,0.78z"/>
  <path class="fil0" d="M2.29 3.06c0.42,0 0.76,-0.33 0.77,-0.75 0.01,-0.43 -0.33,-0.77 -0.75,-0.77l0 0c-0.42,0 -0.77,0.33 -0.77,0.75 -0.01,0.42 0.32,0.77 0.75,0.77l0 0zm0.02 -1.94c0.65,0 1.17,0.53 1.17,1.18 -0.01,0.65 -0.54,1.18 -1.19,1.18 -0.65,0 -1.17,-0.53 -1.17,-1.18 0.01,-0.65 0.54,-1.18 1.19,-1.18z"/>
 </g>
</svg>
