<?xml version="1.0" encoding="UTF-8"?>
<!DOCTYPE svg PUBLIC "-//W3C//DTD SVG 1.0//EN" "http://www.w3.org/TR/2001/REC-SVG-20010904/DTD/svg10.dtd">
<!-- Creator: CorelDRAW 2021 (64-Bit) -->
<svg xmlns="http://www.w3.org/2000/svg" xml:space="preserve" width="834px" height="305px" version="1.0" style="shape-rendering:geometricPrecision; text-rendering:geometricPrecision; image-rendering:optimizeQuality; fill-rule:evenodd; clip-rule:evenodd"
viewBox="0 0 769.5 281.46"
 xmlns:xlink="http://www.w3.org/1999/xlink"
 xmlns:xodm="http://www.corel.com/coreldraw/odm/2003">
 <defs>
  <style type="text/css">
   <![CDATA[
    .str0 {stroke:#EFEEEA;stroke-width:4.61;stroke-linecap:round;stroke-linejoin:round;stroke-miterlimit:22.9256}
    .str1 {stroke:#EFEEEA;stroke-width:0.83;stroke-linecap:round;stroke-linejoin:round;stroke-miterlimit:22.9256}
    .fil0 {fill:#C8B6A5}
    .fil1 {fill:#EFEEEA}
    .fil3 {fill:#2F2A26;fill-rule:nonzero}
    .fil2 {fill:#EFEEEA;fill-rule:nonzero}
   ]]>
  </style>
 </defs>
 <g id="Capa_x0020_1">
  <metadata id="CorelCorpID_0Corel-Layer"/>
  <path class="fil0 str0" d="M628.77 2.31c76.45,0 138.42,61.97 138.42,138.42 0,76.45 -61.97,138.42 -138.42,138.42 -76.45,0 -138.43,-61.97 -138.43,-138.42 0,-76.45 61.98,-138.42 138.43,-138.42z"/>
  <g id="_1750738803568">
   <path class="fil1 str1" d="M549.18 169.06l3.46 0c-0.3,-0.61 -0.51,-1.22 -0.51,-1.93l0 0c0,-2.96 3.16,-5.41 7.14,-5.41l139 0c3.97,0 7.13,2.45 7.13,5.41l0 0c0,0.71 -0.2,1.32 -0.51,1.93l3.47 0c4.89,0 8.96,3.06 8.96,6.73l0 0c0,3.67 -4.07,6.62 -8.96,6.62l-159.18 0c-4.89,0 -8.97,-2.95 -8.97,-6.62l0 0c0,-3.67 4.08,-6.73 8.97,-6.73l0 0z"/>
   <path class="fil1 str1" d="M558.35 136.56c2.45,-32.11 27.82,-58.09 59.72,-61.25l0 -0.2c0,-5.91 4.78,-10.7 10.7,-10.7 5.91,0 10.8,4.79 10.8,10.7l0 0.2c31.79,3.26 57.17,29.14 59.61,61.25 3.47,0.4 6.22,3.46 6.22,7.03l0 0c0,3.97 -3.16,7.13 -7.13,7.13l-139 0c-3.98,0 -7.14,-3.16 -7.14,-7.13l0 0c0,-3.57 2.76,-6.63 6.22,-7.03l0 0z"/>
  </g>
  <path class="fil2" d="M432.39 47.75l-401.55 0c-16.96,0 -30.84,12.18 -30.84,27.07l0 39.06c0,14.89 13.88,27.07 30.84,27.07l355.43 0c-4.48,0.07 -7.51,0.11 -7.51,0.11 12.93,22.7 40.88,25.05 55,24.66 2.4,-0.06 3.22,-2.73 1.28,-3.97 -10.89,-6.87 -11.32,-18.12 -11.26,-20.8l8.61 0c16.96,0 30.84,-12.18 30.84,-27.07l0 -39.06c0,-14.89 -13.88,-27.07 -30.84,-27.07z"/>
  <path class="fil3" d="M40.54 80.86c1,0 1.85,0.35 2.55,1.05 0.7,0.7 1.05,1.57 1.05,2.6 0,1.04 -0.35,1.9 -1.05,2.6 -0.7,0.7 -1.55,1.05 -2.55,1.05 -1.03,0 -1.9,-0.35 -2.6,-1.05 -0.7,-0.7 -1.05,-1.56 -1.05,-2.6 0,-1.03 0.35,-1.9 1.05,-2.6 0.7,-0.7 1.57,-1.05 2.6,-1.05zm-2.55 10.85l4.75 0 0.65 24.24 -6.05 0 0.65 -24.24zm32.34 17.5l-8 -13.9 -4.34 0 0 13.9 -5.7 0 0 -34.74 11.99 0c2.67,0 4.93,0.46 6.78,1.4 1.85,0.93 3.23,2.18 4.15,3.74 0.91,1.57 1.37,3.32 1.37,5.25 0,2.27 -0.66,4.33 -1.97,6.18 -1.32,1.85 -3.35,3.1 -6.08,3.77l8.6 14.4 -6.8 0zm-12.34 -18.45l6.29 0c2.14,0 3.74,-0.53 4.83,-1.6 1.08,-1.06 1.62,-2.5 1.62,-4.3 0,-1.8 -0.53,-3.2 -1.6,-4.22 -1.06,-1.02 -2.68,-1.52 -4.85,-1.52l-6.29 0 0 11.64zm51.13 4c0,1.03 -0.07,1.97 -0.2,2.8l-21.04 0c0.16,2.2 0.98,3.97 2.45,5.3 1.46,1.33 3.26,2 5.39,2 3.07,0 5.24,-1.29 6.5,-3.85l6.15 0c-0.83,2.53 -2.34,4.61 -4.52,6.22 -2.19,1.62 -4.89,2.43 -8.13,2.43 -2.63,0 -4.99,-0.6 -7.07,-1.78 -2.08,-1.18 -3.71,-2.85 -4.9,-5 -1.18,-2.15 -1.77,-4.64 -1.77,-7.47 0,-2.83 0.57,-5.32 1.72,-7.47 1.15,-2.15 2.77,-3.81 4.85,-4.98 2.08,-1.16 4.48,-1.75 7.17,-1.75 2.6,0 4.92,0.57 6.95,1.7 2.04,1.14 3.62,2.73 4.75,4.78 1.13,2.05 1.7,4.4 1.7,7.07zm-5.95 -1.8c-0.03,-2.1 -0.78,-3.78 -2.25,-5.05 -1.46,-1.26 -3.28,-1.9 -5.45,-1.9 -1.96,0 -3.64,0.63 -5.04,1.88 -1.4,1.25 -2.24,2.94 -2.5,5.07l15.24 0zm21.55 16.7c-2.17,0 -4.11,-0.39 -5.83,-1.18 -1.71,-0.78 -3.07,-1.85 -4.07,-3.2 -1,-1.35 -1.53,-2.86 -1.6,-4.52l5.9 0c0.1,1.17 0.66,2.14 1.67,2.92 1.02,0.79 2.29,1.18 3.83,1.18 1.6,0 2.84,-0.31 3.72,-0.93 0.88,-0.61 1.32,-1.4 1.32,-2.37 0,-1.03 -0.49,-1.8 -1.47,-2.3 -0.98,-0.5 -2.54,-1.05 -4.67,-1.65 -2.07,-0.57 -3.75,-1.12 -5.05,-1.65 -1.3,-0.53 -2.43,-1.35 -3.38,-2.45 -0.95,-1.1 -1.42,-2.55 -1.42,-4.35 0,-1.46 0.43,-2.81 1.3,-4.02 0.87,-1.22 2.11,-2.18 3.72,-2.88 1.62,-0.7 3.48,-1.05 5.58,-1.05 3.13,0 5.65,0.8 7.57,2.38 1.92,1.58 2.94,3.74 3.07,6.47l-5.7 0c-0.09,-1.23 -0.59,-2.21 -1.49,-2.95 -0.9,-0.73 -2.12,-1.1 -3.65,-1.1 -1.5,0 -2.65,0.29 -3.45,0.85 -0.8,0.57 -1.2,1.32 -1.2,2.25 0,0.74 0.26,1.35 0.8,1.85 0.53,0.5 1.18,0.89 1.95,1.18 0.76,0.28 1.9,0.64 3.4,1.07 2,0.53 3.64,1.08 4.92,1.63 1.28,0.54 2.39,1.35 3.32,2.42 0.94,1.07 1.42,2.48 1.45,4.25 0,1.56 -0.43,2.96 -1.3,4.2 -0.86,1.23 -2.09,2.2 -3.67,2.9 -1.58,0.7 -3.44,1.05 -5.57,1.05zm41.93 -14.9c0,1.03 -0.06,1.97 -0.19,2.8l-21.05 0c0.17,2.2 0.98,3.97 2.45,5.3 1.47,1.33 3.27,2 5.4,2 3.06,0 5.23,-1.29 6.5,-3.85l6.14 0c-0.83,2.53 -2.34,4.61 -4.52,6.22 -2.18,1.62 -4.89,2.43 -8.12,2.43 -2.63,0 -4.99,-0.6 -7.07,-1.78 -2.09,-1.18 -3.72,-2.85 -4.9,-5 -1.19,-2.15 -1.78,-4.64 -1.78,-7.47 0,-2.83 0.58,-5.32 1.73,-7.47 1.15,-2.15 2.76,-3.81 4.85,-4.98 2.08,-1.16 4.47,-1.75 7.17,-1.75 2.6,0 4.91,0.57 6.95,1.7 2.03,1.14 3.61,2.73 4.75,4.78 1.13,2.05 1.69,4.4 1.69,7.07zm-5.94 -1.8c-0.04,-2.1 -0.79,-3.78 -2.25,-5.05 -1.47,-1.26 -3.28,-1.9 -5.45,-1.9 -1.97,0 -3.65,0.63 -5.05,1.88 -1.4,1.25 -2.23,2.94 -2.5,5.07l15.25 0zm17.24 -7.3c0.83,-1.4 1.94,-2.49 3.33,-3.27 1.38,-0.78 3.02,-1.18 4.92,-1.18l0 5.9 -1.45 0c-2.23,0 -3.92,0.57 -5.07,1.7 -1.15,1.13 -1.73,3.1 -1.73,5.9l0 14.5 -5.7 0 0 -27.55 5.7 0 0 4zm24.15 18.45l7.79 -22.45 6.05 0 -10.5 27.55 -6.79 0 -10.45 -27.55 6.1 0 7.8 22.45zm16.24 -8.8c0,-2.77 0.58,-5.21 1.73,-7.35 1.15,-2.13 2.71,-3.79 4.69,-4.97 1.99,-1.18 4.18,-1.78 6.58,-1.78 2.16,0 4.05,0.43 5.67,1.28 1.62,0.85 2.91,1.91 3.87,3.17l0 -4 5.75 0 0 27.55 -5.75 0 0 -4.1c-0.96,1.3 -2.28,2.38 -3.94,3.25 -1.67,0.86 -3.57,1.3 -5.7,1.3 -2.37,0 -4.53,-0.61 -6.5,-1.83 -1.97,-1.21 -3.52,-2.91 -4.67,-5.1 -1.15,-2.18 -1.73,-4.65 -1.73,-7.42zm22.54 0.1c0,-1.9 -0.39,-3.55 -1.17,-4.95 -0.78,-1.4 -1.81,-2.46 -3.07,-3.2 -1.27,-0.73 -2.64,-1.1 -4.1,-1.1 -1.47,0 -2.84,0.36 -4.1,1.08 -1.27,0.71 -2.29,1.76 -3.08,3.15 -0.78,1.38 -1.17,3.02 -1.17,4.92 0,1.9 0.39,3.57 1.17,5 0.79,1.43 1.82,2.52 3.1,3.27 1.29,0.75 2.64,1.13 4.08,1.13 1.46,0 2.83,-0.37 4.1,-1.1 1.26,-0.73 2.29,-1.81 3.07,-3.23 0.78,-1.41 1.17,-3.07 1.17,-4.97zm-2.29 -21.14l-11.05 5.44 0 -4.19 11.05 -6.1 0 4.85zm26.64 21.04c0,-2.77 0.57,-5.21 1.72,-7.35 1.15,-2.13 2.72,-3.79 4.7,-4.97 1.98,-1.18 4.18,-1.78 6.58,-1.78 2.16,0 4.05,0.43 5.67,1.28 1.61,0.85 2.91,1.91 3.87,3.17l0 -4 5.75 0 0 27.55 -5.75 0 0 -4.1c-0.96,1.3 -2.28,2.38 -3.95,3.25 -1.66,0.86 -3.56,1.3 -5.7,1.3 -2.36,0 -4.53,-0.61 -6.49,-1.83 -1.97,-1.21 -3.53,-2.91 -4.68,-5.1 -1.15,-2.18 -1.72,-4.65 -1.72,-7.42zm22.54 0.1c0,-1.9 -0.39,-3.55 -1.17,-4.95 -0.79,-1.4 -1.81,-2.46 -3.08,-3.2 -1.26,-0.73 -2.63,-1.1 -4.1,-1.1 -1.46,0 -2.83,0.36 -4.09,1.08 -1.27,0.71 -2.3,1.76 -3.08,3.15 -0.78,1.38 -1.17,3.02 -1.17,4.92 0,1.9 0.39,3.57 1.17,5 0.78,1.43 1.82,2.52 3.1,3.27 1.28,0.75 2.64,1.13 4.07,1.13 1.47,0 2.84,-0.37 4.1,-1.1 1.27,-0.73 2.29,-1.81 3.08,-3.23 0.78,-1.41 1.17,-3.07 1.17,-4.97zm27.5 -14.2c2.09,0 3.97,0.45 5.62,1.35 1.65,0.9 2.95,2.24 3.9,4 0.95,1.77 1.42,3.9 1.42,6.4l0 16.25 -5.65 0 0 -15.4c0,-2.47 -0.61,-4.36 -1.85,-5.67 -1.23,-1.32 -2.91,-1.98 -5.04,-1.98 -2.14,0 -3.83,0.66 -5.08,1.98 -1.25,1.31 -1.87,3.2 -1.87,5.67l0 15.4 -5.7 0 0 -36.99 5.7 0 0 12.64c0.96,-1.16 2.19,-2.06 3.67,-2.7 1.48,-0.63 3.11,-0.95 4.88,-0.95zm30.14 28.45c-2.6,0 -4.95,-0.6 -7.05,-1.78 -2.1,-1.18 -3.75,-2.85 -4.95,-5 -1.2,-2.15 -1.8,-4.64 -1.8,-7.47 0,-2.8 0.62,-5.28 1.85,-7.45 1.23,-2.16 2.92,-3.83 5.05,-5 2.13,-1.16 4.51,-1.75 7.15,-1.75 2.63,0 5.01,0.59 7.15,1.75 2.13,1.17 3.81,2.84 5.04,5 1.24,2.17 1.85,4.65 1.85,7.45 0,2.8 -0.63,5.28 -1.9,7.45 -1.26,2.16 -2.99,3.84 -5.17,5.02 -2.18,1.18 -4.59,1.78 -7.22,1.78zm0 -4.95c1.46,0 2.84,-0.35 4.12,-1.05 1.28,-0.7 2.32,-1.75 3.12,-3.15 0.8,-1.4 1.2,-3.1 1.2,-5.1 0,-2 -0.38,-3.69 -1.15,-5.07 -0.76,-1.39 -1.78,-2.43 -3.04,-3.13 -1.27,-0.7 -2.64,-1.05 -4.1,-1.05 -1.47,0 -2.83,0.35 -4.08,1.05 -1.25,0.7 -2.24,1.74 -2.97,3.13 -0.73,1.38 -1.1,3.07 -1.1,5.07 0,2.97 0.76,5.26 2.27,6.87 1.52,1.62 3.43,2.43 5.73,2.43zm25.64 -19.05c0.83,-1.4 1.94,-2.49 3.32,-3.27 1.39,-0.78 3.03,-1.18 4.93,-1.18l0 5.9 -1.45 0c-2.24,0 -3.93,0.57 -5.08,1.7 -1.15,1.13 -1.72,3.1 -1.72,5.9l0 14.5 -5.7 0 0 -27.55 5.7 0 0 4zm11.6 9.65c0,-2.77 0.57,-5.21 1.72,-7.35 1.15,-2.13 2.72,-3.79 4.7,-4.97 1.98,-1.18 4.17,-1.78 6.57,-1.78 2.17,0 4.06,0.43 5.68,1.28 1.61,0.85 2.9,1.91 3.87,3.17l0 -4 5.75 0 0 27.55 -5.75 0 0 -4.1c-0.97,1.3 -2.28,2.38 -3.95,3.25 -1.67,0.86 -3.56,1.3 -5.7,1.3 -2.36,0 -4.53,-0.61 -6.5,-1.83 -1.96,-1.21 -3.52,-2.91 -4.67,-5.1 -1.15,-2.18 -1.72,-4.65 -1.72,-7.42zm22.54 0.1c0,-1.9 -0.39,-3.55 -1.17,-4.95 -0.79,-1.4 -1.81,-2.46 -3.08,-3.2 -1.26,-0.73 -2.63,-1.1 -4.1,-1.1 -1.46,0 -2.83,0.36 -4.1,1.08 -1.26,0.71 -2.29,1.76 -3.07,3.15 -0.78,1.38 -1.17,3.02 -1.17,4.92 0,1.9 0.39,3.57 1.17,5 0.78,1.43 1.82,2.52 3.1,3.27 1.28,0.75 2.64,1.13 4.07,1.13 1.47,0 2.84,-0.37 4.1,-1.1 1.27,-0.73 2.29,-1.81 3.08,-3.23 0.78,-1.41 1.17,-3.07 1.17,-4.97zm20.4 -20.94l-0.65 24.24 -4.75 0 -0.65 -24.24 6.05 0zm-2.85 35.09c-1.04,0 -1.9,-0.35 -2.6,-1.05 -0.7,-0.7 -1.05,-1.57 -1.05,-2.6 0,-1.04 0.35,-1.9 1.05,-2.6 0.7,-0.7 1.56,-1.05 2.6,-1.05 1,0 1.84,0.35 2.55,1.05 0.7,0.7 1.05,1.56 1.05,2.6 0,1.03 -0.35,1.9 -1.05,2.6 -0.71,0.7 -1.55,1.05 -2.55,1.05z"/>
 </g>
</svg>
