<svg xmlns="http://www.w3.org/2000/svg" width="100" height="100" version="1.0" viewBox="0 0 20.41 20.41" shape-rendering="geometricPrecision" text-rendering="geometricPrecision" image-rendering="optimizeQuality" fill-rule="evenodd" clip-rule="evenodd"><defs><style>.fil1{fill:#efeeea;fill-rule:nonzero}</style></defs><g id="Capa_x0020_1"><circle cx="10.21" cy="10.21" r="10.04" fill="#c8b6a5" stroke="#efeeea" stroke-width=".33" stroke-linecap="round" stroke-linejoin="round" stroke-miterlimit="22.926"/><path class="fil1" d="M14.46 15.63c.04.12.12.22.23.27.11.06.24.07.36.03l.99-.33c.25-.08.38-.35.3-.6a.468.468 0 00-.6-.29l-.54.18-1.39-4.29a.467.467 0 00-.55-.31l-2.15.49a3.722 3.722 0 00-2.33-1.83l-.09-1.24c-.02.04-.05.08-.08.12l-.78.95v.04H7.8l-.58.71c.2-.04.4-.06.61-.06h.08c.33 0 .65.06.95.17.45.15.85.4 1.18.73.16.17.31.36.44.56a3.06 3.06 0 01.46 1.62 3.074 3.074 0 01-3.09 3.09h-.01-.01c-.85 0-1.62-.34-2.18-.9s-.91-1.33-.91-2.19a3.077 3.077 0 011.04-2.3.58.58 0 01-.02-.74l.11-.13c-.25.15-.47.33-.68.54a3.734 3.734 0 000 5.27 3.71 3.71 0 002.64 1.09c1.03 0 1.96-.41 2.64-1.09.67-.67 1.09-1.61 1.09-2.64 0-.3-.04-.6-.11-.88l1.6-.37 1.41 4.33zM6.1 5.28c0 .94.67 1.73 1.55 1.91l.04-.04.03-.04c.11-.14.27-.21.43-.21.14-.01.27.04.37.13.04.03.08.07.11.11l.01.01c.79-.25 1.37-.99 1.37-1.87 0-1.08-.87-1.95-1.95-1.95S6.1 4.2 6.1 5.28z"/><path class="fil1" d="M8.42 7.7a.38.38 0 00-.03-.5l-.03-.02a.358.358 0 00-.24-.09c-.1.01-.2.05-.28.14l-.16.2-1.81 2.21a.363.363 0 00.06.52l2.1 1.68.26.2c.07.06.15.09.24.09a.4.4 0 00.28-.14c.13-.16.1-.4-.06-.53l-.8-.64-1.27-1L7.76 8.5l.66-.8z"/></g></svg>