<?xml version="1.0" encoding="UTF-8"?>
<!DOCTYPE svg PUBLIC "-//W3C//DTD SVG 1.0//EN" "http://www.w3.org/TR/2001/REC-SVG-20010904/DTD/svg10.dtd">
<!-- Creator: CorelDRAW 2021 (64-Bit) -->
<svg xmlns="http://www.w3.org/2000/svg" xml:space="preserve" width="100px" height="100px" version="1.0" style="shape-rendering:geometricPrecision; text-rendering:geometricPrecision; image-rendering:optimizeQuality; fill-rule:evenodd; clip-rule:evenodd"
viewBox="0 0 14.88 14.88"
 xmlns:xlink="http://www.w3.org/1999/xlink"
 xmlns:xodm="http://www.corel.com/coreldraw/odm/2003">
 <defs>
  <style type="text/css">
   <![CDATA[
    .str0 {stroke:#EFEEEA;stroke-width:0.24;stroke-linecap:round;stroke-linejoin:round;stroke-miterlimit:22.9256}
    .str1 {stroke:#EFEEEA;stroke-width:0.04;stroke-linecap:round;stroke-linejoin:round;stroke-miterlimit:22.9256}
    .fil0 {fill:#C8B6A5}
    .fil1 {fill:#EFEEEA}
   ]]>
  </style>
 </defs>
 <g id="Capa_x0020_1">
  <metadata id="CorelCorpID_0Corel-Layer"/>
  <circle class="fil0 str0" cx="7.44" cy="7.44" r="7.32"/>
  <g id="_2723572827200">
   <path class="fil1 str1" d="M3.23 8.94l0.18 0c-0.01,-0.04 -0.02,-0.07 -0.02,-0.11l0 0c0,-0.15 0.16,-0.28 0.37,-0.28l7.35 0c0.21,0 0.38,0.13 0.38,0.28l0 0c0,0.04 -0.01,0.07 -0.03,0.11l0.18 0c0.26,0 0.48,0.16 0.48,0.35l0 0c0,0.2 -0.22,0.35 -0.48,0.35l-8.41 0c-0.26,0 -0.47,-0.15 -0.47,-0.35l0 0c0,-0.19 0.21,-0.35 0.47,-0.35l0 0z"/>
   <path class="fil1 str1" d="M3.72 7.22c0.13,-1.7 1.47,-3.07 3.15,-3.24l0 -0.01c0,-0.31 0.26,-0.57 0.57,-0.57 0.31,0 0.57,0.26 0.57,0.57l0 0.01c1.68,0.17 3.02,1.54 3.15,3.24 0.18,0.02 0.33,0.18 0.33,0.37l0 0c0,0.21 -0.17,0.38 -0.38,0.38l-7.35 0c-0.21,0 -0.37,-0.17 -0.37,-0.38l0 0c0,-0.19 0.14,-0.35 0.33,-0.37l0 0z"/>
  </g>
 </g>
</svg>
