<?xml version="1.0" encoding="UTF-8"?>
<!DOCTYPE svg PUBLIC "-//W3C//DTD SVG 1.0//EN" "http://www.w3.org/TR/2001/REC-SVG-20010904/DTD/svg10.dtd">
<!-- Creator: CorelDRAW 2021 (64-Bit) -->
<svg xmlns="http://www.w3.org/2000/svg" xml:space="preserve" width="100px" height="100px" version="1.0" style="shape-rendering:geometricPrecision; text-rendering:geometricPrecision; image-rendering:optimizeQuality; fill-rule:evenodd; clip-rule:evenodd"
viewBox="0 0 10.06 10.06"
 xmlns:xlink="http://www.w3.org/1999/xlink"
 xmlns:xodm="http://www.corel.com/coreldraw/odm/2003">
 <defs>
  <style type="text/css">
   <![CDATA[
    .str0 {stroke:#EFEEEA;stroke-width:0.16;stroke-linecap:round;stroke-linejoin:round;stroke-miterlimit:22.9256}
    .fil0 {fill:#C8B6A5}
    .fil1 {fill:#EFEEEA}
   ]]>
  </style>
 </defs>
 <g id="Capa_x0020_1">
  <metadata id="CorelCorpID_0Corel-Layer"/>
  <circle class="fil0 str0" cx="5.03" cy="5.03" r="4.95"/>
  <path class="fil1" d="M4.16 3l0 0.12c0,0.01 0.01,0.03 0.03,0.03l0 0c0.01,0 0.03,-0.02 0.03,-0.03l0 -0.12c0,-0.01 -0.02,-0.03 -0.03,-0.03l0 0c-0.02,0 -0.03,0.02 -0.03,0.03l0 0zm0 0.26l0 0.11c0,0.02 0.01,0.03 0.03,0.03l0 0c0.01,0 0.03,-0.01 0.03,-0.03l0 -0.11c0,-0.02 -0.02,-0.03 -0.03,-0.03l0 0c-0.02,0 -0.03,0.01 -0.03,0.03l0 0zm-0.17 -0.26l0 0.12c0,0.01 0.02,0.03 0.03,0.03l0 0c0.02,0 0.03,-0.02 0.03,-0.03l0 -0.12c0,-0.01 -0.01,-0.03 -0.03,-0.03l0 0c-0.01,0 -0.03,0.02 -0.03,0.03l0 0zm0 0.26l0 0.11c0,0.02 0.02,0.03 0.03,0.03l0 0c0.02,0 0.03,-0.01 0.03,-0.03l0 -0.11c0,-0.02 -0.01,-0.03 -0.03,-0.03l0 0c-0.01,0 -0.03,0.01 -0.03,0.03l0 0zm0 0.25l0 0.12c0,0.01 0.02,0.02 0.03,0.02l0 0c0.02,0 0.03,-0.01 0.03,-0.02l0 -0.12c0,-0.02 -0.01,-0.03 -0.03,-0.03l0 0c-0.01,0 -0.03,0.01 -0.03,0.03l0 0zm-0.16 -0.51l0 0.12c0,0.01 0.01,0.03 0.02,0.03l0 0c0.02,0 0.03,-0.02 0.03,-0.03l0 -0.12c0,-0.01 -0.01,-0.03 -0.03,-0.03l0 0c-0.01,0 -0.02,0.02 -0.02,0.03l0 0zm0 0.26l0 0.11c0,0.02 0.01,0.03 0.02,0.03l0 0c0.02,0 0.03,-0.01 0.03,-0.03l0 -0.11c0,-0.02 -0.01,-0.03 -0.03,-0.03l0 0c-0.01,0 -0.02,0.01 -0.02,0.03l0 0zm0 0.25l0 0.12c0,0.01 0.01,0.02 0.02,0.02l0 0c0.02,0 0.03,-0.01 0.03,-0.02l0 -0.12c0,-0.02 -0.01,-0.03 -0.03,-0.03l0 0c-0.01,0 -0.02,0.01 -0.02,0.03l0 0zm-0.17 -0.51l0 0.12c0,0.01 0.01,0.03 0.03,0.03l0 0c0.01,0 0.03,-0.02 0.03,-0.03l0 -0.12c0,-0.01 -0.02,-0.03 -0.03,-0.03l0 0c-0.02,0 -0.03,0.02 -0.03,0.03l0 0zm0 0.26l0 0.11c0,0.02 0.01,0.03 0.03,0.03l0 0c0.01,0 0.03,-0.01 0.03,-0.03l0 -0.11c0,-0.02 -0.02,-0.03 -0.03,-0.03l0 0c-0.02,0 -0.03,0.01 -0.03,0.03l0 0zm-0.17 -0.26l0 0.12c0,0.01 0.02,0.03 0.03,0.03l0 0c0.02,0 0.03,-0.02 0.03,-0.03l0 -0.12c0,-0.01 -0.01,-0.03 -0.03,-0.03l0 0c-0.01,0 -0.03,0.02 -0.03,0.03l0 0zm0.83 0l0 0.12c0,0.01 0.02,0.03 0.03,0.03l0 0c0.02,0 0.03,-0.02 0.03,-0.03l0 -0.12c0,-0.01 -0.01,-0.03 -0.03,-0.03l0 0c-0.01,0 -0.03,0.02 -0.03,0.03l0 0zm-1.61 2.4l0.26 0 0 -3.39c0,-0.03 0.02,-0.05 0.05,-0.06l0 0c0.01,-0.01 0.01,-0.01 0.02,-0.01l0.9 0c0.04,0 0.07,0.03 0.07,0.07l0 0c0,0 0,0 0,0.01l0 0.25 0.01 0c0.02,0 0.04,0.01 0.04,0.03l0 0.08c0.34,0.02 0.57,0.12 0.57,0.26 0,0.13 -0.31,0.26 -0.69,0.26 -0.38,0 -0.69,-0.13 -0.69,-0.26 0,-0.14 0.23,-0.24 0.58,-0.26l0 -0.08c0,-0.02 0.01,-0.03 0.03,-0.03l0.01 0 0 -0.19 -0.76 0 0 3.32 4.32 0 0 0.19 -4.72 0 0 -0.19zm0 0.34l4.72 0 0 1.13c0,0.39 -0.32,0.71 -0.71,0.71l-0.09 0c0,0.02 0.01,0.05 0.01,0.08l0 0c0,0.18 -0.15,0.33 -0.33,0.33l-0.09 0c-0.18,0 -0.33,-0.15 -0.33,-0.33l0 0c0,-0.03 0.01,-0.06 0.01,-0.08l-1.66 0c0.01,0.02 0.01,0.05 0.01,0.08l0 0c0,0.18 -0.15,0.33 -0.33,0.33l-0.09 0c-0.18,0 -0.33,-0.15 -0.33,-0.33l0 0c0,-0.03 0.01,-0.06 0.02,-0.08l-0.1 0c-0.39,0 -0.71,-0.32 -0.71,-0.71l0 -1.13z"/>
 </g>
</svg>
