<svg xmlns="http://www.w3.org/2000/svg" width="100" height="100" version="1.0" viewBox="0 0 10.07 10.07" shape-rendering="geometricPrecision" text-rendering="geometricPrecision" image-rendering="optimizeQuality" fill-rule="evenodd" clip-rule="evenodd"><defs><style>.fil1{fill:#efeeea;fill-rule:nonzero}</style></defs><g id="Capa_x0020_1"><circle cx="5.04" cy="5.04" r="4.95" fill="#c8b6a5" stroke="#efeeea" stroke-width=".17" stroke-linecap="round" stroke-linejoin="round" stroke-miterlimit="22.926"/><path class="fil1" d="M8.04 5.35h-.09c0 .05-.02.1-.05.13a.21.21 0 01-.13.05H2.3a.21.21 0 01-.13-.05.19.19 0 01-.05-.13V3.74c0-.05.02-.1.05-.13.04-.04.08-.06.13-.06h5.47c.05 0 .09.02.13.06.03.03.05.08.05.13v1.61h.18V3.74c0-.2-.16-.37-.36-.37H2.3c-.2 0-.36.17-.36.37v1.61c0 .2.16.37.36.37h5.47c.2 0 .36-.17.36-.37h-.09z"/><path class="fil1" d="M2.56 4.11h3.55v-.18H2.56zM2.56 4.66h3.55v-.19H2.56zM2.56 5.2h3.55v-.18H2.56zM2.54 6.08h4.99v-.25H2.54zM6.97 4.87a.2.2 0 01-.2.2.2.2 0 01-.2-.2c0-.11.09-.19.2-.19.11 0 .2.08.2.19zM7.82 4.87a.2.2 0 01-.2.2.2.2 0 01-.2-.2c0-.11.09-.19.2-.19.11 0 .2.08.2.19zM7.42 4.2a.2.2 0 01-.2.2.2.2 0 01-.2-.2c0-.11.09-.2.2-.2.11 0 .2.09.2.2zM5.13 7v-.57c0-.05-.19-.05-.19 0V7H4.8l.24.36.23-.36h-.14zM6.91 6.76c-.02 0-.28-.3-.31-.41-.01-.03-.21.09-.19.12.02.08.37.42.39.42-.02.03-.05.07-.06.1.15.03.3.05.46.08a.73.73 0 01-.19-.42c-.04.04-.07.07-.1.11zM3.16 6.76c.02 0 .28-.3.31-.41.01-.03.21.09.19.12-.02.08-.37.42-.39.42.02.03.05.07.06.1-.15.03-.3.05-.46.08a.73.73 0 00.19-.42c.04.04.07.07.1.11z"/></g></svg>