<svg xmlns="http://www.w3.org/2000/svg" width="305" height="305" version="1.0" viewBox="0 0 339.58 339.58" shape-rendering="geometricPrecision" text-rendering="geometricPrecision" image-rendering="optimizeQuality" fill-rule="evenodd" clip-rule="evenodd"><defs><style>.fil1{fill:#efeeea;fill-rule:nonzero}</style></defs><g id="Capa_x0020_1"><circle cx="169.79" cy="169.79" r="167" fill="#c8b6a5" stroke="#efeeea" stroke-width="5.57" stroke-linecap="round" stroke-linejoin="round" stroke-miterlimit="22.926"/><path class="fil1" d="M126.42 155.02l-46.6 9.63c-.86.18-1.05 1.33-.28 1.77l13.47 7.78c.45.26.61.85.35 1.3l-23.1 40.02c-.19.33-.17.74.06 1.05l23.54 31.5c.42.55 1.26.5 1.6-.09l30.86-53.45c.26-.46.84-.61 1.3-.35l13.48 7.78c.76.44 1.66-.3 1.38-1.13l-14.95-45.18a.963.963 0 00-1.11-.63z"/><path class="fil1" d="M119.38 212.09l-20.86 36.14c-.37.64.09 1.44.83 1.44h49.97c.53 0 .96-.43.96-.96v-36.14a.96.96 0 00-.96-.96h-29.11c-.34 0-.66.19-.83.48zM172.5 231.06l31.65 35.54c.58.66 1.67.24 1.67-.64v-15.55c0-.53.43-.96.96-.96h46.2c.38 0 .73-.23.88-.58l15.51-36.14a.961.961 0 00-.88-1.34h-61.71a.96.96 0 01-.96-.96v-15.55c0-.88-1.09-1.3-1.67-.64l-31.65 35.54c-.32.37-.32.91 0 1.28z"/><path class="fil1" d="M225.45 208.62h41.73c.74 0 1.2-.8.83-1.44l-24.98-43.28a.974.974 0 00-1.31-.35l-31.3 18.07c-.46.27-.62.85-.35 1.31l14.55 25.21c.17.29.49.48.83.48zM215.96 152.02l14.95-45.17c.28-.84-.63-1.57-1.39-1.13l-13.47 7.77a.954.954 0 01-1.31-.35l-23.1-40.01a.946.946 0 00-.94-.47l-39.05 4.64a.961.961 0 00-.72 1.43l30.86 53.44a.96.96 0 01-.35 1.31l-13.48 7.78c-.76.44-.57 1.59.29 1.77l46.6 9.63c.48.1.95-.17 1.11-.64z"/><path class="fil1" d="M170.05 117.39l-20.87-36.14a.958.958 0 00-1.66 0l-24.98 43.27a.952.952 0 00.35 1.31l31.3 18.07c.45.27 1.04.11 1.3-.35l14.56-25.2c.17-.3.17-.66 0-.96z"/></g></svg>