<svg xmlns="http://www.w3.org/2000/svg" width="100" height="100" version="1.0" viewBox="0 0 42.54 42.54" xmlns:xlink="http://www.w3.org/1999/xlink" shape-rendering="geometricPrecision" text-rendering="geometricPrecision" image-rendering="optimizeQuality" fill-rule="evenodd" clip-rule="evenodd"><defs><clipPath id="a"><path d="M21.27.35C32.83.35 42.2 9.72 42.2 21.27c0 11.56-9.37 20.93-20.93 20.93C9.72 42.2.35 32.83.35 21.27.35 9.72 9.72.35 21.27.35z"/></clipPath><clipPath id="b"><path d="M21.27.35C32.83.35 42.2 9.72 42.2 21.27c0 11.56-9.37 20.93-20.93 20.93C9.72 42.2.35 32.83.35 21.27.35 9.72 9.72.35 21.27.35z"/></clipPath><clipPath id="c"><path d="M21.27.35C32.83.35 42.2 9.72 42.2 21.27c0 11.56-9.37 20.93-20.93 20.93C9.72 42.2.35 32.83.35 21.27.35 9.72 9.72.35 21.27.35z"/></clipPath></defs><path d="M21.27.35C32.83.35 42.2 9.72 42.2 21.27c0 11.56-9.37 20.93-20.93 20.93C9.72 42.2.35 32.83.35 21.27.35 9.72 9.72.35 21.27.35z" fill="#c8b6a5"/><g clip-path="url(#a)"><g clip-path="url(#b)"><image x="-43.68" y="-48.19" width="129.9" height="129.9" xlink:href="servregional_Images\servregional_ImgID1.png"/></g></g><path d="M21.27.35C32.83.35 42.2 9.72 42.2 21.27c0 11.56-9.37 20.93-20.93 20.93C9.72 42.2.35 32.83.35 21.27.35 9.72 9.72.35 21.27.35z" fill="none" stroke="#efeeea" stroke-width=".7" stroke-linecap="round" stroke-linejoin="round" stroke-miterlimit="22.926"/></svg>