<?xml version="1.0" encoding="UTF-8"?>
<!DOCTYPE svg PUBLIC "-//W3C//DTD SVG 1.0//EN" "http://www.w3.org/TR/2001/REC-SVG-20010904/DTD/svg10.dtd">
<!-- Creator: CorelDRAW 2021 (64-Bit) -->
<svg xmlns="http://www.w3.org/2000/svg" xml:space="preserve" width="100px" height="100px" version="1.0" style="shape-rendering:geometricPrecision; text-rendering:geometricPrecision; image-rendering:optimizeQuality; fill-rule:evenodd; clip-rule:evenodd"
viewBox="0 0 18.76 18.76"
 xmlns:xlink="http://www.w3.org/1999/xlink"
 xmlns:xodm="http://www.corel.com/coreldraw/odm/2003">
 <defs>
  <style type="text/css">
   <![CDATA[
    .str0 {stroke:#EFEEEA;stroke-width:0.31;stroke-linecap:round;stroke-linejoin:round;stroke-miterlimit:22.9256}
    .str1 {stroke:#EFEEEA;stroke-width:0.06;stroke-miterlimit:10}
    .fil0 {fill:#C8B6A5}
    .fil1 {fill:#EFEEEA;fill-rule:nonzero}
   ]]>
  </style>
 </defs>
 <g id="Capa_x0020_1">
  <metadata id="CorelCorpID_0Corel-Layer"/>
  <circle class="fil0 str0" cx="9.38" cy="9.38" r="9.23"/>
  <path class="fil1" d="M5.31 5.09c-0.01,-0.08 -0.06,-0.15 -0.11,-0.15 -0.05,0 -0.09,0.07 -0.09,0.15l0.01 1.51c0.01,0.08 -0.01,0.14 -0.04,0.14 -0.02,0 -0.05,-0.06 -0.06,-0.14l-0.15 -1.51c-0.01,-0.08 -0.05,-0.15 -0.09,-0.15 -0.04,0 -0.08,0.07 -0.09,0.15l-0.1 1.51c-0.01,0.08 -0.03,0.14 -0.06,0.14 -0.02,0 -0.05,-0.06 -0.05,-0.14l-0.09 -1.51c-0.01,-0.08 -0.05,-0.15 -0.1,-0.15 -0.05,0 -0.09,0.07 -0.09,0.15l-0.11 1.51c0,0.08 -0.03,0.14 -0.05,0.14 -0.03,0 -0.05,-0.06 -0.05,-0.14l-0.04 -1.51c0,-0.08 -0.04,-0.15 -0.08,-0.15 -0.05,0 -0.09,0.07 -0.11,0.15 0,0 -0.21,1.32 -0.23,1.81 -0.03,0.7 0.56,1.26 0.56,1.26 0.06,0.05 0.1,0.16 0.1,0.24l0 5.65c0,0.08 0.07,0.14 0.15,0.14l0.4 0c0.08,0 0.14,-0.06 0.14,-0.14l0 -5.65c0,-0.08 0.05,-0.19 0.11,-0.24 0,0 0.59,-0.56 0.56,-1.26 -0.02,-0.49 -0.24,-1.81 -0.24,-1.81z"/>
  <path class="fil1 str1" d="M9.4 5.77c-2.1,0 -3.8,1.71 -3.8,3.8 0,2.09 1.7,3.79 3.8,3.79 2.09,0 3.79,-1.7 3.79,-3.79 0,-2.09 -1.7,-3.8 -3.79,-3.8zm0 7.91c-2.27,0 -4.12,-1.85 -4.12,-4.11 0,-2.27 1.85,-4.11 4.12,-4.11 2.26,0 4.11,1.84 4.11,4.11 0,2.26 -1.85,4.11 -4.11,4.11z"/>
  <path class="fil1 str1" d="M9.4 7.31c-1.24,0 -2.25,1.01 -2.25,2.25 0,1.23 1.01,2.24 2.25,2.24 1.23,0 2.24,-1.01 2.24,-2.24 0,-1.24 -1.01,-2.25 -2.24,-2.25zm0 4.81c-1.42,0 -2.57,-1.15 -2.57,-2.56 0,-1.42 1.15,-2.57 2.57,-2.57 1.41,0 2.56,1.15 2.56,2.57 0,1.41 -1.15,2.56 -2.56,2.56z"/>
  <path class="fil1" d="M14.65 5.01c0,-0.25 -0.11,-0.28 -0.25,-0.09 0,0 -0.81,1.15 -0.81,2.09l0 0.12c0,0.19 0.02,0.55 0.05,0.79l0.17 0.67c0.08,0.23 0.15,0.62 0.15,0.86l0 0.12 0.01 4.48c0,0.08 0.06,0.14 0.14,0.14l0.4 0c0.08,0 0.14,-0.06 0.14,-0.14l0 -4.57 0 0 0 -4.47z"/>
 </g>
</svg>
