<?xml version="1.0" encoding="UTF-8"?>
<!DOCTYPE svg PUBLIC "-//W3C//DTD SVG 1.0//EN" "http://www.w3.org/TR/2001/REC-SVG-20010904/DTD/svg10.dtd">
<!-- Creator: CorelDRAW 2021 (64-Bit) -->
<svg xmlns="http://www.w3.org/2000/svg" xml:space="preserve" width="305px" height="305px" version="1.0" style="shape-rendering:geometricPrecision; text-rendering:geometricPrecision; image-rendering:optimizeQuality; fill-rule:evenodd; clip-rule:evenodd"
viewBox="0 0 339.58 339.58"
 xmlns:xlink="http://www.w3.org/1999/xlink"
 xmlns:xodm="http://www.corel.com/coreldraw/odm/2003">
 <defs>
  <style type="text/css">
   <![CDATA[
    .str0 {stroke:#EFEEEA;stroke-width:5.57;stroke-linecap:round;stroke-linejoin:round;stroke-miterlimit:22.9256}
    .fil0 {fill:#C8B6A5}
    .fil1 {fill:#EFEEEA;fill-rule:nonzero}
   ]]>
  </style>
 </defs>
 <g id="Capa_x0020_1">
  <metadata id="CorelCorpID_0Corel-Layer"/>
  <circle class="fil0 str0" cx="169.79" cy="169.79" r="167"/>
  <path class="fil1" d="M126.42 155.02l-46.6 9.63c-0.86,0.18 -1.05,1.33 -0.28,1.77l13.47 7.78c0.45,0.26 0.61,0.85 0.35,1.3l-23.1 40.02c-0.19,0.33 -0.17,0.74 0.06,1.05l23.54 31.5c0.42,0.55 1.26,0.5 1.6,-0.09l30.86 -53.45c0.26,-0.46 0.84,-0.61 1.3,-0.35l13.48 7.78c0.76,0.44 1.66,-0.3 1.38,-1.13l-14.95 -45.18c-0.16,-0.46 -0.63,-0.73 -1.11,-0.63z"/>
  <path class="fil1" d="M119.38 212.09l-20.86 36.14c-0.37,0.64 0.09,1.44 0.83,1.44l49.97 0c0.53,0 0.96,-0.43 0.96,-0.96l0 -36.14c0,-0.53 -0.43,-0.96 -0.96,-0.96l-29.11 0c-0.34,0 -0.66,0.19 -0.83,0.48z"/>
  <path class="fil1" d="M172.5 231.06l31.65 35.54c0.58,0.66 1.67,0.24 1.67,-0.64l0 -15.55c0,-0.53 0.43,-0.96 0.96,-0.96l46.2 0c0.38,0 0.73,-0.23 0.88,-0.58l15.51 -36.14c0.27,-0.63 -0.19,-1.34 -0.88,-1.34l-61.71 0c-0.53,0 -0.96,-0.43 -0.96,-0.96l0 -15.55c0,-0.88 -1.09,-1.3 -1.67,-0.64l-31.65 35.54c-0.32,0.37 -0.32,0.91 0,1.28z"/>
  <path class="fil1" d="M225.45 208.62l41.73 0c0.74,0 1.2,-0.8 0.83,-1.44l-24.98 -43.28c-0.27,-0.45 -0.86,-0.61 -1.31,-0.35l-31.3 18.07c-0.46,0.27 -0.62,0.85 -0.35,1.31l14.55 25.21c0.17,0.29 0.49,0.48 0.83,0.48z"/>
  <path class="fil1" d="M215.96 152.02l14.95 -45.17c0.28,-0.84 -0.63,-1.57 -1.39,-1.13l-13.47 7.77c-0.46,0.27 -1.04,0.11 -1.31,-0.35l-23.1 -40.01c-0.19,-0.33 -0.56,-0.52 -0.94,-0.47l-39.05 4.64c-0.68,0.08 -1.06,0.83 -0.72,1.43l30.86 53.44c0.26,0.46 0.11,1.05 -0.35,1.31l-13.48 7.78c-0.76,0.44 -0.57,1.59 0.29,1.77l46.6 9.63c0.48,0.1 0.95,-0.17 1.11,-0.64z"/>
  <path class="fil1" d="M170.05 117.39l-20.87 -36.14c-0.37,-0.64 -1.29,-0.64 -1.66,0l-24.98 43.27c-0.27,0.46 -0.11,1.05 0.35,1.31l31.3 18.07c0.45,0.27 1.04,0.11 1.3,-0.35l14.56 -25.2c0.17,-0.3 0.17,-0.66 0,-0.96z"/>
 </g>
</svg>
