<svg xmlns="http://www.w3.org/2000/svg" width="100" height="100" version="1.0" viewBox="0 0 18.76 18.76" shape-rendering="geometricPrecision" text-rendering="geometricPrecision" image-rendering="optimizeQuality" fill-rule="evenodd" clip-rule="evenodd"><defs><style>.str1{stroke:#efeeea;stroke-width:.06;stroke-miterlimit:10}.fil1{fill:#efeeea;fill-rule:nonzero}</style></defs><g id="Capa_x0020_1"><circle cx="9.38" cy="9.38" r="9.23" fill="#c8b6a5" stroke="#efeeea" stroke-width=".31" stroke-linecap="round" stroke-linejoin="round" stroke-miterlimit="22.926"/><path class="fil1" d="M5.31 5.09c-.01-.08-.06-.15-.11-.15s-.09.07-.09.15l.01 1.51c.01.08-.01.14-.04.14-.02 0-.05-.06-.06-.14l-.15-1.51c-.01-.08-.05-.15-.09-.15-.04 0-.08.07-.09.15l-.1 1.51c-.01.08-.03.14-.06.14-.02 0-.05-.06-.05-.14l-.09-1.51c-.01-.08-.05-.15-.1-.15s-.09.07-.09.15L4.09 6.6c0 .08-.03.14-.05.14-.03 0-.05-.06-.05-.14l-.04-1.51c0-.08-.04-.15-.08-.15-.05 0-.09.07-.11.15 0 0-.21 1.32-.23 1.81-.03.7.56 1.26.56 1.26.06.05.1.16.1.24v5.65c0 .08.07.14.15.14h.4c.08 0 .14-.06.14-.14V8.4c0-.08.05-.19.11-.24 0 0 .59-.56.56-1.26-.02-.49-.24-1.81-.24-1.81z"/><path class="fil1 str1" d="M9.4 5.77c-2.1 0-3.8 1.71-3.8 3.8a3.796 3.796 0 007.59 0c0-2.09-1.7-3.8-3.79-3.8zm0 7.91c-2.27 0-4.12-1.85-4.12-4.11 0-2.27 1.85-4.11 4.12-4.11 2.26 0 4.11 1.84 4.11 4.11 0 2.26-1.85 4.11-4.11 4.11z"/><path class="fil1 str1" d="M9.4 7.31c-1.24 0-2.25 1.01-2.25 2.25 0 1.23 1.01 2.24 2.25 2.24a2.25 2.25 0 002.24-2.24c0-1.24-1.01-2.25-2.24-2.25zm0 4.81c-1.42 0-2.57-1.15-2.57-2.56A2.57 2.57 0 019.4 6.99a2.565 2.565 0 010 5.13z"/><path class="fil1" d="M14.65 5.01c0-.25-.11-.28-.25-.09 0 0-.81 1.15-.81 2.09v.12c0 .19.02.55.05.79l.17.67c.08.23.15.62.15.86v.12l.01 4.48c0 .08.06.14.14.14h.4c.08 0 .14-.06.14-.14V5.01z"/></g></svg>