<svg xmlns="http://www.w3.org/2000/svg" width="100" height="100" version="1.0" viewBox="0 0 14.88 14.88" shape-rendering="geometricPrecision" text-rendering="geometricPrecision" image-rendering="optimizeQuality" fill-rule="evenodd" clip-rule="evenodd"><defs><style>.str1{stroke:#efeeea;stroke-width:.04;stroke-linecap:round;stroke-linejoin:round;stroke-miterlimit:22.9256}.fil1{fill:#efeeea}</style></defs><g id="Capa_x0020_1"><circle cx="7.44" cy="7.44" r="7.32" fill="#c8b6a5" stroke="#efeeea" stroke-width=".24" stroke-linecap="round" stroke-linejoin="round" stroke-miterlimit="22.926"/><g id="_2723572827200"><path class="fil1 str1" d="M3.23 8.94h.18c-.01-.04-.02-.07-.02-.11 0-.15.16-.28.37-.28h7.35c.21 0 .38.13.38.28 0 .04-.01.07-.03.11h.18c.26 0 .48.16.48.35 0 .2-.22.35-.48.35H3.23c-.26 0-.47-.15-.47-.35 0-.19.21-.35.47-.35zM3.72 7.22c.13-1.7 1.47-3.07 3.15-3.24v-.01c0-.31.26-.57.57-.57.31 0 .57.26.57.57v.01c1.68.17 3.02 1.54 3.15 3.24.18.02.33.18.33.37 0 .21-.17.38-.38.38H3.76c-.21 0-.37-.17-.37-.38 0-.19.14-.35.33-.37z"/></g></g></svg>