<svg xmlns="http://www.w3.org/2000/svg" width="100" height="100" version="1.0" viewBox="0 0 10.06 10.06" shape-rendering="geometricPrecision" text-rendering="geometricPrecision" image-rendering="optimizeQuality" fill-rule="evenodd" clip-rule="evenodd"><circle cx="5.03" cy="5.03" r="4.95" fill="#c8b6a5" stroke="#efeeea" stroke-width=".16" stroke-linecap="round" stroke-linejoin="round" stroke-miterlimit="22.926"/><path d="M4.16 3v.12c0 .01.01.03.03.03.01 0 .03-.02.03-.03V3c0-.01-.02-.03-.03-.03-.02 0-.03.02-.03.03zm0 .26v.11c0 .02.01.03.03.03.01 0 .03-.01.03-.03v-.11c0-.02-.02-.03-.03-.03-.02 0-.03.01-.03.03zM3.99 3v.12c0 .01.02.03.03.03.02 0 .03-.02.03-.03V3c0-.01-.01-.03-.03-.03-.01 0-.03.02-.03.03zm0 .26v.11c0 .02.02.03.03.03.02 0 .03-.01.03-.03v-.11c0-.02-.01-.03-.03-.03-.01 0-.03.01-.03.03zm0 .25v.12c0 .01.02.02.03.02.02 0 .03-.01.03-.02v-.12c0-.02-.01-.03-.03-.03-.01 0-.03.01-.03.03zM3.83 3v.12c0 .01.01.03.02.03.02 0 .03-.02.03-.03V3c0-.01-.01-.03-.03-.03-.01 0-.02.02-.02.03zm0 .26v.11c0 .02.01.03.02.03.02 0 .03-.01.03-.03v-.11c0-.02-.01-.03-.03-.03-.01 0-.02.01-.02.03zm0 .25v.12c0 .01.01.02.02.02.02 0 .03-.01.03-.02v-.12c0-.02-.01-.03-.03-.03-.01 0-.02.01-.02.03zM3.66 3v.12c0 .01.01.03.03.03.01 0 .03-.02.03-.03V3c0-.01-.02-.03-.03-.03-.02 0-.03.02-.03.03zm0 .26v.11c0 .02.01.03.03.03.01 0 .03-.01.03-.03v-.11c0-.02-.02-.03-.03-.03-.02 0-.03.01-.03.03zM3.49 3v.12c0 .01.02.03.03.03.02 0 .03-.02.03-.03V3c0-.01-.01-.03-.03-.03-.01 0-.03.02-.03.03zm.83 0v.12c0 .01.02.03.03.03.02 0 .03-.02.03-.03V3c0-.01-.01-.03-.03-.03-.01 0-.03.02-.03.03zM2.71 5.4h.26V2.01c0-.03.02-.05.05-.06.01-.01.01-.01.02-.01h.9c.04 0 .07.03.07.07v.26h.01c.02 0 .04.01.04.03v.08c.34.02.57.12.57.26 0 .13-.31.26-.69.26-.38 0-.69-.13-.69-.26 0-.14.23-.24.58-.26V2.3c0-.02.01-.03.03-.03h.01v-.19h-.76V5.4h4.32v.19H2.71V5.4zm0 .34h4.72v1.13c0 .39-.32.71-.71.71h-.09c0 .02.01.05.01.08 0 .18-.15.33-.33.33h-.09c-.18 0-.33-.15-.33-.33 0-.03.01-.06.01-.08H4.24c.01.02.01.05.01.08 0 .18-.15.33-.33.33h-.09c-.18 0-.33-.15-.33-.33 0-.03.01-.06.02-.08h-.1c-.39 0-.71-.32-.71-.71V5.74z" fill="#efeeea"/></svg>