<?xml version="1.0" encoding="UTF-8"?>
<!DOCTYPE svg PUBLIC "-//W3C//DTD SVG 1.0//EN" "http://www.w3.org/TR/2001/REC-SVG-20010904/DTD/svg10.dtd">
<!-- Creator: CorelDRAW 2021 (64-Bit) -->
<svg xmlns="http://www.w3.org/2000/svg" xml:space="preserve" width="100px" height="100px" version="1.0" style="shape-rendering:geometricPrecision; text-rendering:geometricPrecision; image-rendering:optimizeQuality; fill-rule:evenodd; clip-rule:evenodd"
viewBox="0 0 20.41 20.41"
 xmlns:xlink="http://www.w3.org/1999/xlink"
 xmlns:xodm="http://www.corel.com/coreldraw/odm/2003">
 <defs>
  <style type="text/css">
   <![CDATA[
    .str0 {stroke:#EFEEEA;stroke-width:0.33;stroke-linecap:round;stroke-linejoin:round;stroke-miterlimit:22.9256}
    .fil0 {fill:#C8B6A5}
    .fil1 {fill:#EFEEEA;fill-rule:nonzero}
   ]]>
  </style>
 </defs>
 <g id="Capa_x0020_1">
  <metadata id="CorelCorpID_0Corel-Layer"/>
  <circle class="fil0 str0" cx="10.21" cy="10.21" r="10.04"/>
  <path class="fil1" d="M14.46 15.63c0.04,0.12 0.12,0.22 0.23,0.27 0.11,0.06 0.24,0.07 0.36,0.03l0.99 -0.33c0.25,-0.08 0.38,-0.35 0.3,-0.6 -0.08,-0.24 -0.35,-0.38 -0.6,-0.29l-0.54 0.18 -1.39 -4.29c-0.07,-0.23 -0.31,-0.36 -0.55,-0.31l-2.15 0.49c-0.17,-0.32 -0.39,-0.61 -0.64,-0.86 -0.46,-0.46 -1.04,-0.8 -1.69,-0.97l-0.09 -1.24c-0.02,0.04 -0.05,0.08 -0.08,0.12l-0.78 0.95 0 0.04 0 0 -0.03 0 -0.58 0.71c0.2,-0.04 0.4,-0.06 0.61,-0.06 0.01,0 0.01,0 0.02,0 0,0 0,0 0,0 0.02,0 0.04,0 0.06,0 0.33,0 0.65,0.06 0.95,0.17 0.45,0.15 0.85,0.4 1.18,0.73 0.16,0.17 0.31,0.36 0.44,0.56 0.17,0.27 0.29,0.56 0.37,0.88 0.06,0.24 0.09,0.49 0.09,0.74 0,0.86 -0.34,1.63 -0.9,2.19 -0.56,0.56 -1.33,0.9 -2.19,0.9 0,0 0,0 -0.01,0 0,0 -0.01,0 -0.01,0 -0.85,0 -1.62,-0.34 -2.18,-0.9 -0.56,-0.56 -0.91,-1.33 -0.91,-2.19 0,-0.85 0.35,-1.62 0.91,-2.18 0.04,-0.04 0.08,-0.08 0.13,-0.12 -0.08,-0.09 -0.13,-0.2 -0.14,-0.32 -0.02,-0.15 0.03,-0.3 0.12,-0.42l0.11 -0.13c-0.25,0.15 -0.47,0.33 -0.68,0.54 -0.67,0.67 -1.09,1.6 -1.09,2.63 0,1.03 0.42,1.97 1.09,2.64 0.68,0.68 1.61,1.09 2.64,1.09 1.03,0 1.96,-0.41 2.64,-1.09 0.67,-0.67 1.09,-1.61 1.09,-2.64 0,-0.3 -0.04,-0.6 -0.11,-0.88l1.6 -0.37 1.41 4.33z"/>
  <path class="fil1" d="M6.1 5.28c0,0.94 0.67,1.73 1.55,1.91l0.04 -0.04 0.03 -0.04c0.11,-0.14 0.27,-0.21 0.43,-0.21 0.14,-0.01 0.27,0.04 0.37,0.13 0.04,0.03 0.08,0.07 0.11,0.11l0.01 0.01c0.79,-0.25 1.37,-0.99 1.37,-1.87 0,-1.08 -0.87,-1.95 -1.95,-1.95 -1.08,0 -1.96,0.87 -1.96,1.95z"/>
  <path class="fil1" d="M8.42 7.7c0.12,-0.15 0.1,-0.37 -0.03,-0.5l-0.03 -0.02c-0.07,-0.06 -0.15,-0.09 -0.24,-0.09 -0.1,0.01 -0.2,0.05 -0.28,0.14l0 0 -0.16 0.2 -1.81 2.21c-0.06,0.07 -0.09,0.17 -0.08,0.27 0.01,0.1 0.06,0.19 0.14,0.25l2.1 1.68 0.26 0.2c0.07,0.06 0.15,0.09 0.24,0.09 0.1,-0.01 0.21,-0.05 0.28,-0.14 0.13,-0.16 0.1,-0.4 -0.06,-0.53l-0.8 -0.64 -1.27 -1 1.08 -1.32 0.66 -0.8z"/>
 </g>
</svg>
