<?xml version="1.0" encoding="UTF-8"?>
<!DOCTYPE svg PUBLIC "-//W3C//DTD SVG 1.0//EN" "http://www.w3.org/TR/2001/REC-SVG-20010904/DTD/svg10.dtd">
<!-- Creator: CorelDRAW 2021 (64-Bit) -->
<svg xmlns="http://www.w3.org/2000/svg" xml:space="preserve" width="100px" height="100px" version="1.0" style="shape-rendering:geometricPrecision; text-rendering:geometricPrecision; image-rendering:optimizeQuality; fill-rule:evenodd; clip-rule:evenodd"
viewBox="0 0 10.07 10.07"
 xmlns:xlink="http://www.w3.org/1999/xlink"
 xmlns:xodm="http://www.corel.com/coreldraw/odm/2003">
 <defs>
  <style type="text/css">
   <![CDATA[
    .str0 {stroke:#EFEEEA;stroke-width:0.17;stroke-linecap:round;stroke-linejoin:round;stroke-miterlimit:22.9256}
    .fil0 {fill:#C8B6A5}
    .fil1 {fill:#EFEEEA;fill-rule:nonzero}
   ]]>
  </style>
 </defs>
 <g id="Capa_x0020_1">
  <metadata id="CorelCorpID_0Corel-Layer"/>
  <circle class="fil0 str0" cx="5.04" cy="5.04" r="4.95"/>
  <path class="fil1" d="M8.04 5.35l-0.09 0c0,0.05 -0.02,0.1 -0.05,0.13 -0.04,0.03 -0.08,0.05 -0.13,0.05l-5.47 0c-0.05,0 -0.09,-0.02 -0.13,-0.05 -0.03,-0.03 -0.05,-0.08 -0.05,-0.13l0 -1.61c0,-0.05 0.02,-0.1 0.05,-0.13 0.04,-0.04 0.08,-0.06 0.13,-0.06l5.47 0c0.05,0 0.09,0.02 0.13,0.06 0.03,0.03 0.05,0.08 0.05,0.13l0 1.61 0.18 0 0 -1.61c0,-0.2 -0.16,-0.37 -0.36,-0.37l-5.47 0c-0.2,0 -0.36,0.17 -0.36,0.37l0 1.61c0,0.2 0.16,0.37 0.36,0.37l5.47 0c0.2,0 0.36,-0.17 0.36,-0.37l-0.09 0z"/>
  <polygon class="fil1" points="2.56,4.11 6.11,4.11 6.11,3.93 2.56,3.93 "/>
  <polygon class="fil1" points="2.56,4.66 6.11,4.66 6.11,4.47 2.56,4.47 "/>
  <polygon class="fil1" points="2.56,5.2 6.11,5.2 6.11,5.02 2.56,5.02 "/>
  <polygon class="fil1" points="2.54,6.08 7.53,6.08 7.53,5.83 2.54,5.83 "/>
  <path class="fil1" d="M6.97 4.87c0,0.11 -0.09,0.2 -0.2,0.2 -0.11,0 -0.2,-0.09 -0.2,-0.2 0,-0.11 0.09,-0.19 0.2,-0.19 0.11,0 0.2,0.08 0.2,0.19z"/>
  <path class="fil1" d="M7.82 4.87c0,0.11 -0.09,0.2 -0.2,0.2 -0.11,0 -0.2,-0.09 -0.2,-0.2 0,-0.11 0.09,-0.19 0.2,-0.19 0.11,0 0.2,0.08 0.2,0.19z"/>
  <path class="fil1" d="M7.42 4.2c0,0.11 -0.09,0.2 -0.2,0.2 -0.11,0 -0.2,-0.09 -0.2,-0.2 0,-0.11 0.09,-0.2 0.2,-0.2 0.11,0 0.2,0.09 0.2,0.2z"/>
  <path class="fil1" d="M5.13 7c0,0 0,-0.4 0,-0.57 0,-0.05 -0.19,-0.05 -0.19,0 0,0.11 0,0.57 0,0.57l-0.14 0 0.24 0.36 0.23 -0.36 -0.14 0z"/>
  <path class="fil1" d="M6.91 6.76c-0.02,0 -0.28,-0.3 -0.31,-0.41 -0.01,-0.03 -0.21,0.09 -0.19,0.12 0.02,0.08 0.37,0.42 0.39,0.42 -0.02,0.03 -0.05,0.07 -0.06,0.1 0.15,0.03 0.3,0.05 0.46,0.08 -0.11,-0.13 -0.18,-0.27 -0.19,-0.42 -0.04,0.04 -0.07,0.07 -0.1,0.11z"/>
  <path class="fil1" d="M3.16 6.76c0.02,0 0.28,-0.3 0.31,-0.41 0.01,-0.03 0.21,0.09 0.19,0.12 -0.02,0.08 -0.37,0.42 -0.39,0.42 0.02,0.03 0.05,0.07 0.06,0.1 -0.15,0.03 -0.3,0.05 -0.46,0.08 0.11,-0.13 0.18,-0.27 0.19,-0.42 0.04,0.04 0.07,0.07 0.1,0.11z"/>
 </g>
</svg>
