<?xml version="1.0" encoding="UTF-8"?>
<!DOCTYPE svg PUBLIC "-//W3C//DTD SVG 1.0//EN" "http://www.w3.org/TR/2001/REC-SVG-20010904/DTD/svg10.dtd">
<!-- Creator: CorelDRAW 2021 (64-Bit) -->
<svg xmlns="http://www.w3.org/2000/svg" xml:space="preserve" width="100px" height="101px" version="1.0" style="shape-rendering:geometricPrecision; text-rendering:geometricPrecision; image-rendering:optimizeQuality; fill-rule:evenodd; clip-rule:evenodd"
viewBox="0 0 7.76 7.77"
 xmlns:xlink="http://www.w3.org/1999/xlink"
 xmlns:xodm="http://www.corel.com/coreldraw/odm/2003">
 <defs>
  <style type="text/css">
   <![CDATA[
    .fil0 {fill:#C8B6A5;fill-rule:nonzero}
   ]]>
  </style>
 </defs>
 <g id="Capa_x0020_1">
  <metadata id="CorelCorpID_0Corel-Layer"/>
  <path class="fil0" d="M2.6 2.08c0.08,0 0.15,0.01 0.23,0.02 0.04,0.01 0.08,0.07 0.1,0.12 0.11,0.25 0.21,0.5 0.31,0.75 0.05,0.13 -0.05,0.26 -0.24,0.49 -0.07,0.07 -0.08,0.13 -0.03,0.21 0.31,0.54 0.75,0.93 1.33,1.15 0.03,0.01 0.05,0.02 0.07,0.02 0.05,0 0.09,-0.02 0.13,-0.07 0.25,-0.3 0.32,-0.43 0.42,-0.43 0.03,0 0.05,0.01 0.08,0.02 0.78,0.37 0.84,0.39 0.84,0.48 0.02,0.62 -0.52,0.86 -0.89,0.86l-0.05 0c-0.75,-0.02 -1.95,-0.62 -2.76,-2.05 -0.29,-0.5 -0.24,-1.08 0.19,-1.48 0.08,-0.07 0.18,-0.09 0.27,-0.09z"/>
  <path class="fil0" d="M4.39 7.04c1.75,-0.28 2.96,-1.92 2.71,-3.66 -0.24,-1.61 -1.6,-2.75 -3.16,-2.75 -0.19,0 -0.39,0.02 -0.58,0.06 -2.17,0.4 -3.34,2.81 -2.28,4.72 0.12,0.21 0.15,0.39 0.07,0.61 -0.1,0.28 -0.16,0.56 -0.25,0.86 0.39,-0.1 0.74,-0.18 1.1,-0.28 0.03,-0.01 0.06,-0.02 0.09,-0.02 0.06,0 0.11,0.02 0.17,0.06 0.5,0.29 1.04,0.44 1.61,0.44 0.17,0 0.34,-0.01 0.52,-0.04zm3.31 -3.9c0.37,2.13 -1.04,4.15 -3.15,4.52 -0.23,0.04 -0.45,0.06 -0.68,0.06 -0.59,0 -1.17,-0.14 -1.72,-0.41 -0.05,-0.03 -0.11,-0.04 -0.16,-0.04 -0.03,0 -0.06,0.01 -0.08,0.01 -1.02,0.26 -1.7,0.45 -1.91,0.49 0.05,-0.17 0.08,-0.31 0.12,-0.46 0.14,-0.47 0.27,-0.93 0.39,-1.4 0.02,-0.07 0.02,-0.16 -0.01,-0.23 -1.17,-2.25 0.07,-4.99 2.56,-5.57 0.31,-0.08 0.61,-0.11 0.91,-0.11 1.88,0 3.42,1.38 3.73,3.14z"/>
 </g>
</svg>
