<svg xmlns="http://www.w3.org/2000/svg" width="100" height="101" version="1.0" viewBox="0 0 7.76 7.77" shape-rendering="geometricPrecision" text-rendering="geometricPrecision" image-rendering="optimizeQuality" fill-rule="evenodd" clip-rule="evenodd"><defs><style>.fil0{fill:#c8b6a5;fill-rule:nonzero}</style></defs><g id="Capa_x0020_1"><path class="fil0" d="M2.6 2.08c.08 0 .15.01.23.02.04.01.08.07.1.12.11.25.21.5.31.75.05.13-.05.26-.24.49-.07.07-.08.13-.03.21.31.54.75.93 1.33 1.15.03.01.05.02.07.02.05 0 .09-.02.13-.07.25-.3.32-.43.42-.43.03 0 .05.01.08.02.78.37.84.39.84.48.02.62-.52.86-.89.86H4.9c-.75-.02-1.95-.62-2.76-2.05-.29-.5-.24-1.08.19-1.48a.4.4 0 01.27-.09z"/><path class="fil0" d="M4.39 7.04c1.75-.28 2.96-1.92 2.71-3.66A3.2 3.2 0 003.94.63c-.19 0-.39.02-.58.06-2.17.4-3.34 2.81-2.28 4.72.12.21.15.39.07.61-.1.28-.16.56-.25.86.39-.1.74-.18 1.1-.28.03-.01.06-.02.09-.02.06 0 .11.02.17.06.5.29 1.04.44 1.61.44.17 0 .34-.01.52-.04zm3.31-3.9c.37 2.13-1.04 4.15-3.15 4.52-.23.04-.45.06-.68.06-.59 0-1.17-.14-1.72-.41a.317.317 0 00-.16-.04c-.03 0-.06.01-.08.01-1.02.26-1.7.45-1.91.49.05-.17.08-.31.12-.46.14-.47.27-.93.39-1.4.02-.07.02-.16-.01-.23A3.868 3.868 0 013.06.11c.31-.08.61-.11.91-.11C5.85 0 7.39 1.38 7.7 3.14z"/></g></svg>